<?xml version="1.0" encoding="utf-8"?>
<!-- Generator: Adobe Illustrator 16.0.0, SVG Export Plug-In . SVG Version: 6.00 Build 0)  -->
<!DOCTYPE svg PUBLIC "-//W3C//DTD SVG 1.1//EN" "http://www.w3.org/Graphics/SVG/1.1/DTD/svg11.dtd">
<svg version="1.1" id="Layer_1" xmlns="http://www.w3.org/2000/svg" xmlns:xlink="http://www.w3.org/1999/xlink" x="0px" y="0px"
	 width="270px" height="162px" viewBox="0 0 270 162" enable-background="new 0 0 270 162" xml:space="preserve">
<g>
	<path fill="#006BB6" d="M66.85,14.21c0,0,0,87.457,0,100.757c0,13.301,38.95,23.434,68.717,33.827h0.032
		c29.767-10.394,68.717-20.526,68.717-33.827c0-13.3,0-100.757,0-100.757H66.85z M137.119,26.799l2.396-0.092
		c3.662-0.142,6.742,2.643,6.881,6.22l0.162,4.139c0.139,3.578-2.72,6.592-6.382,6.734l-2.395,0.093
		c-3.663,0.141-6.744-2.644-6.883-6.222l-0.16-4.138C130.601,29.956,133.459,26.941,137.119,26.799z M120.884,44.454
		c2.181-2.368,5.623-2.74,8.052-0.44l4.129,3.491l11.105,10.379c1.848-3.04,4.034-6.61,5.928-9.628
		c-1.138-2.02-1.132-4.615,0.241-6.728l2.259-3.471c1.951-3.001,5.916-3.885,8.853-1.974l1.921,1.249
		c2.938,1.911,3.734,5.892,1.783,8.894l-2.258,3.472c-1.18,1.814-3.095,2.847-5.073,2.964l-10.066,16.619
		c-1.349,2.229-4.159,2.995-6.276,1.712c-0.36-0.218-0.66-0.494-0.932-0.791c-0.277-0.135-0.557-0.298-0.842-0.503
		c-1.559-1.119-2.229-1.893-3.214-2.765l-11.725-10.791c-1.467-1.384-4.094-3.946-4.37-4.297
		C118.778,49.791,118.704,46.823,120.884,44.454z M124.403,100.261l-17.048,25.841c-1.381,2.092-4.563,2.428-7.11,0.748
		c-2.546-1.681-3.491-4.738-2.11-6.832l14.015-21.242c-0.112-0.204-0.201-0.401-0.258-0.584c-0.086-0.271-0.169-3.791-0.208-4.905
		l-0.118-13.947c0.016-1.618,0.06-2.744,0.141-3.1c0.47-2.078,3.019-5.576,6.802-5.608c3.782-0.031,7.138,3.283,7.104,5.969
		l0.024,2.827l0.153,18.283C125.819,98.542,125.288,99.459,124.403,100.261z M158.602,91.499
		c-1.14,2.742-15.617,33.774-15.617,33.774c-1.191,2.57-4.4,3.615-7.169,2.332c-2.769-1.281-4.048-4.403-2.858-6.975l12.66-27.342
		c-0.594-0.227-1.186-0.503-1.766-0.84l-10.344-6.877c-1.325-0.937-2.227-1.615-2.474-1.887c-1.441-1.574-2.861-5.682-0.718-8.833
		c2.144-3.15,6.799-4.039,8.993-2.478l2.342,1.594c0,0,9.742,6.41,12.723,8.578c0.153,0.112,0.293,0.229,0.429,0.348
		C157.566,84.181,159.739,88.76,158.602,91.499z M177.384,57.878l-2.61,2.815c-1.555,1.676-3.843,2.231-5.919,1.69l-9.544,9.023
		c-1.894,1.79-4.828,1.757-6.558-0.071c-1.729-1.829-1.596-4.762,0.297-6.551c0,0,5.03-4.806,9.715-9.145
		c-0.158-1.649,0.335-3.349,1.546-4.655l2.612-2.813c2.257-2.433,6.072-2.563,8.519-0.294l1.6,1.485
		C179.488,51.634,179.643,55.446,177.384,57.878z"/>
	<path fill="#FFFFFF" d="M125.612,76.6c0.034-2.686-3.322-6-7.104-5.969c-3.783,0.032-6.332,3.53-6.802,5.608
		c-0.081,0.355-0.125,1.482-0.141,3.1l0.118,13.947c0.039,1.114,0.122,4.634,0.208,4.905c0.058,0.183,0.146,0.38,0.258,0.584
		l-14.015,21.242c-1.381,2.094-0.436,5.151,2.11,6.832c2.547,1.68,5.729,1.344,7.11-0.748l17.048-25.841
		c0.885-0.802,1.416-1.719,1.386-2.551l-0.153-18.283L125.612,76.6z"/>
	<path fill="#FFFFFF" d="M154.802,82.895c-0.136-0.118-0.275-0.235-0.429-0.348c-2.98-2.168-12.723-8.578-12.723-8.578l-2.342-1.594
		c-2.193-1.561-6.849-0.672-8.993,2.478c-2.143,3.151-0.723,7.258,0.718,8.833c0.247,0.271,1.149,0.95,2.474,1.887l10.344,6.877
		c0.58,0.337,1.172,0.613,1.766,0.84l-12.66,27.342c-1.19,2.571,0.089,5.693,2.858,6.975c2.769,1.283,5.978,0.238,7.169-2.332
		c0,0,14.478-31.032,15.617-33.774C159.739,88.76,157.566,84.181,154.802,82.895z"/>
	<path fill="#FFFFFF" d="M137.782,43.893l2.395-0.093c3.662-0.142,6.521-3.156,6.382-6.734l-0.162-4.139
		c-0.139-3.577-3.219-6.362-6.881-6.22l-2.396,0.092c-3.66,0.142-6.518,3.157-6.38,6.734l0.16,4.138
		C131.038,41.249,134.119,44.034,137.782,43.893z"/>
	<path fill="#FFFFFF" d="M124.768,56.143l11.725,10.791c0.985,0.872,1.655,1.646,3.214,2.765c0.285,0.205,0.564,0.368,0.842,0.503
		c0.271,0.297,0.571,0.573,0.932,0.791c2.117,1.283,4.928,0.517,6.276-1.712l10.066-16.619c1.979-0.117,3.894-1.15,5.073-2.964
		l2.258-3.472c1.951-3.002,1.154-6.983-1.783-8.894l-1.921-1.249c-2.937-1.911-6.901-1.027-8.853,1.974l-2.259,3.471
		c-1.373,2.113-1.379,4.708-0.241,6.728c-1.894,3.018-4.08,6.588-5.928,9.628l-11.105-10.379l-4.129-3.491
		c-2.429-2.3-5.871-1.928-8.052,0.44c-2.18,2.369-2.106,5.337-0.486,7.392C120.674,52.197,123.301,54.759,124.768,56.143z"/>
	<path fill="#FFFFFF" d="M175.441,47.878c-2.446-2.269-6.262-2.139-8.519,0.294l-2.612,2.813c-1.211,1.306-1.704,3.006-1.546,4.655
		c-4.685,4.339-9.715,9.145-9.715,9.145c-1.893,1.789-2.026,4.722-0.297,6.551c1.729,1.828,4.664,1.861,6.558,0.071l9.544-9.023
		c2.076,0.541,4.364-0.015,5.919-1.69l2.61-2.815c2.259-2.432,2.104-6.244-0.343-8.515L175.441,47.878z"/>
</g>
</svg>
