<?xml version="1.0" encoding="utf-8"?>
<!-- Generator: Adobe Illustrator 16.0.0, SVG Export Plug-In . SVG Version: 6.00 Build 0)  -->
<!DOCTYPE svg PUBLIC "-//W3C//DTD SVG 1.1//EN" "http://www.w3.org/Graphics/SVG/1.1/DTD/svg11.dtd">
<svg version="1.1" xmlns="http://www.w3.org/2000/svg" xmlns:xlink="http://www.w3.org/1999/xlink" x="0px" y="0px" width="1600px"
	 height="600px" viewBox="0 0 1600 600" enable-background="new 0 0 1600 600" xml:space="preserve">
<g id="Layer_5">
</g>
<g id="Layer_4">
</g>
<g id="Layer_1">
	<g>
		<path fill="#090909" d="M1-0.412V600h1599V-0.412H1z M1143.933,505.075c-0.254,4.115-3.051,7.369-8.015,6.979
			c-3.854-0.304-6.716-2.008-7.346-6.199c-2.607-17.368-9.551-31.671-26.921-38.869c-1.468-0.609-3.018-2.28-3.515-3.793
			c-7.017-21.342-25.598-30.557-43.631-38.243c-33.001-14.062-66.266-28.751-100.849-37.568
			c-52.638-13.421-101.344-33.078-142.841-68.556c-8.762-7.492-17.139-8.367-25.924-1.818
			c-23.628,17.62-50.883,27.183-78.291,36.715c-19.3,6.713-23.319,11.332-21.627,31.801c2.388,28.898-9.567,55.177-12.618,83.043
			c-1.76,16.056,2.124,32.578-4.131,48.17c3.818,4.559,9.474,7.009,11.567,13.705c5.046,16.136,2.85,20.71-13.517,23.987
			c-17.622,3.524-35.316,6.775-52.782,10.97c-11.229,2.698-21.851-0.116-32.634-1.636c-3.628-0.512-8.069-2.021-7.46-7.479
			c0.502-4.483,3.146-7.749,7.588-7.682c17.449,0.265,28.305-8.225,38.062-22.495c6.136-8.983,19.715-9.848,30.797-12.102
			c-10.006-2.876-12.888-9.028-9.359-18.866c1.296-3.611,1.625-7.771,1.506-11.656c-1.303-43.025,2.203-86.143-2.581-129.103
			c-1.168-10.471,2.541-18.932,11.616-24.846c10.743-7.002,19.456-16.105,27.588-26.002c11.609-14.127,27.572-22.907,42.646-32.652
			c5.478-3.545,11.551-6.174,18.817-9.987c-9.604-8.643-18.075-17.223-27.537-24.512c-10.655-8.214-20.07-17.125-25.171-29.799
			c-1.897-4.717-5.064-8.566-9.056-11.089c-17.528-11.08-24.003-28.58-27.964-47.404c-2.915-13.869-15.13-20.797-28.156-15.176
			c-18.646,8.04-32.424,1.706-37.78-17.338c-0.96-3.417,1.337-5.909,2.43-8.671c1.47-3.723,3.83-7.275-0.161-10.736
			c-5.737-4.977-3.914-11.304-2.967-17.263c2.348-14.751,22.334-30.422,39.702-31.47c14.783-0.89,28.484,9.979,32.487,27.173
			c2.332,10.021,5.098,13.629,16.45,9.329c26.27-9.943,55.093-9.586,81.752-18.411c4.465-1.479,7.845,0.334,11.271,1.912
			c36.098,16.628,77.039,20.017,111.595,41.13c6.229,3.808,14.49,2.349,21.716-1.021c4.995-2.332,9.932-5.331,17.108-5.005
			c-4.038,8.491-13.621,7.947-19.055,14.602c8.241,2.617,15.273-2.039,22.579-2.371c5.224-0.235,5.219-0.329,4.75,6.06
			c-0.25,3.398,6.587,8.391,14.245,6.911c15.562-3.007,17.537,5.734,19.96,17.577c1.894,9.248-2.107,12.504-9.107,14.098
			c-14.046,3.195-27.759,2.248-40.598-5.188c-3.784-2.194-7.836-3.939-11.812-5.788c-3.728-1.732-7.324-3.772-3.445,3.293
			c1.515,2.761-2.03,3.34-4.132,2.896c-8.962-1.886-18.868-2.764-25.202-9.894c-12.819-14.432-31.181-17.06-47.575-23.774
			c-4.649-1.902-10.33-1.086-15.36,1.594c-4.241,2.257-8.75,4.181-13.346,5.569c-25.784,7.791-26.046,8.453-10.858,30.921
			c4.673,6.909,9.154,13.943,13.748,20.906c8.243,12.494,16.59,23.875,32.531,28.778c18.794,5.781,29.132,20.836,31.762,40.164
			c1.828,13.438,7.603,21.602,20.691,27.257c20.299,8.771,33.853,26.444,46.981,43.502c9.846,12.788,22.62,19.382,37.616,22.164
			c23.266,4.315,44.229,12.533,63.231,27.415c18.94,14.831,38.803,28.84,62.045,36.964c5.425,1.896,9.435,3.021,14.46-1.041
			c3.228-2.606,7.905-3.914,12.14-4.691c9.48-1.741,16.699-0.833,18.058,11.893c2.514,23.583,12.714,45.562,15.601,69.223
			C1146.703,489.723,1144.416,497.249,1143.933,505.075z"/>
	</g>
</g>
<g id="Layer_2" display="none">
	<g id="b0RvSS_1_" display="inline">
		<g>
			<path fill="#FFFFFF" d="M909.461,327.777c-0.842-1.348-1.384-2.197-1.902-3.052c-3.756-6.172-7.502-12.343-8.744-19.64
				c-0.826-4.894-1.619-9.791-2.522-14.67c-1.202-6.448-2.56-12.809-5.287-18.883c-1.144-2.544-0.946-5.733-1.136-8.647
				c-0.201-3.135,0.077-6.307-0.276-9.418c-0.225-1.983-0.225-3.619,1.09-5.251c3.272-4.058,2.792-7.58,0.023-11.223
				c-2.918-3.848-5.953-7.62-9.002-11.366c-3.479-4.263-6.677-8.526-7.609-14.284c-0.622-3.842-1.799-7.781-4.639-10.787
				c-3.321-3.514-3.723-6.321-1.046-10.393c2.413-3.679,5.127-7.158,7.488-10.861c3.405-5.352,6.43-10.95,9.949-16.223
				c4.187-6.286,9.136-12.098,13.029-18.554c6.744-11.163,13.018-22.613,19.315-34.035c4.063-7.369,7.054-15.339,12.639-21.836
				c4.128-4.809,7.882-9.974,13.667-13.062c0.897-0.474,1.781-1.37,2.197-2.281c2.024-4.443,4.588-8.472,8.25-11.747
				c0.159-0.146,0.26-0.347,0.398-0.513c0.932-1.131,1.015-2.467-0.154-3.208c-0.777-0.49-2.24-0.535-3.088-0.13
				c-1.264,0.593-2.263,1.758-3.363,2.689c-2.535,2.141-4.08,2.188-6.25-0.303c-0.812-0.94-1.209-2.455-1.291-3.738
				c-0.203-2.944-0.052-5.914-0.14-8.873c-0.153-5.039-0.335-10.073-0.624-15.103c-0.048-0.864-0.467-1.97-1.098-2.478
				c-2.109-1.687-4.354-3.2-6.615-4.68c-1.657-1.087-2.58-0.684-3.303,1.122c-0.252,0.639-0.586,1.36-1.102,1.757
				c-2.902,2.244-2.396,3.812-1.117,6.593c0.854,1.842,1.449,3.801,2.127,5.624c-1.27,0.065-2.771-0.105-2.875,0.2
				c-0.318,0.938-0.316,2.111-0.057,3.094c0.426,1.594,1.337,3.062,1.711,4.66c0.438,1.857,0.844,3.824,0.707,5.699
				c-0.48,6.325-1.244,12.626-1.816,18.944c-0.178,2.016-0.631,3.75-2.308,5.124c-1.612,1.325-2.984,2.928-4.476,4.395
				c-8.791,8.634-18.325,16.548-25.564,26.672c-4.611,6.458-9.59,12.668-13.863,19.328c-3.613,5.629-6.408,11.775-9.639,17.651
				c-4.312,7.848-9.73,14.938-16.541,20.685c-4.825,4.068-8.844,8.651-12.361,13.776c-1.229,1.783-2.25,3.706-3.371,5.57
				c-0.186-0.042-0.371-0.084-0.556-0.117c0.061-1.397-0.202-2.921,0.263-4.164c0.75-1.983,1.869-3.865,3.043-5.646
				c2.26-3.432,1.443-6.542-2.198-8.363c-1.245-0.616-2.636-1.387-3.371-2.479c-1.026-1.524-1.874-2.9-4.198-2.556
				c0.504-3.44-0.7-5.685-4.166-6.159c-2.066-0.281-1.87-1.799-1.994-3.208c-0.219-2.606-0.732-3.149-3.287-3.223
				c-1.361-0.043-2.736,0.161-4.101,0.113c-2.378-0.087-4.785,1.067-7.162-0.506c-1.46-0.969-3.206-1.644-4.917-2.066
				c-3.565-0.88-7.197-1.478-10.791-2.25c-0.592-0.124-1.119-0.523-1.68-0.787c-1.304-0.617-2.573-1.65-3.914-1.759
				c-2.825-0.219-5.383,0.774-7.409,2.888c-2.931,3.055-5.875,6.092-8.842,9.167c-0.07-0.206-0.174-0.341-0.144-0.433
				c3.287-9.22,6.562-18.45,9.912-27.643c0.407-1.123,1.048-2.275,1.885-3.105c6.514-6.437,11.307-13.969,14.534-22.506
				c0.248-0.662,0.343-1.556,0.106-2.193c-1.001-2.696-2.126-5.346-3.265-7.987c-0.236-0.549-0.732-0.984-1.51-2.005
				c-0.608,1.578-1.164,2.621-1.409,3.734c-0.481,2.175-0.639,4.425-1.214,6.575c-0.538,1.998-2.247,3.318-4.145,3.222
				c-1.029-0.051-2.13-1.628-2.901-2.724c-0.544-0.769-0.796-1.89-0.804-2.855c-0.068-5.836-0.081-11.677-0.009-17.512
				c0.021-1.981-0.811-2.644-2.655-1.831c-1.82,0.81-2.317,2.333-2.491,4.184c-0.425,4.564-0.978,9.119-1.476,13.63
				c-1.884-0.046-2.369-0.792-2.168-2.249c0.421-3.143,0.876-6.283,1.101-9.445c0.205-2.849,0.253-5.725,0.112-8.564
				c-0.063-1.227-1.145-2.2-2.462-1.811c-1.038,0.308-2.087,1.043-2.782,1.873c-0.477,0.572-0.45,1.636-0.498,2.486
				c-0.265,5.267-0.531,10.54-0.697,15.809c-0.047,1.486-0.501,2.459-2.15,2.933c-0.786-2.742-1.686-5.398-2.294-8.122
				c-0.627-2.804-0.838-5.702-1.514-8.492c-0.252-1.026-1.306-1.861-1.992-2.784c-0.651,0.888-1.774,1.733-1.866,2.677
				c-0.308,3.122-0.46,6.293-0.244,9.414c0.166,2.436,0.963,4.832,1.597,7.794c-0.813-0.589-1.084-0.794-1.37-0.989
				c-3.124-2.147-3.95-5.736-5.56-8.837c-0.248-0.474-0.755-1.258-0.981-1.204c-0.553,0.134-1.158,0.569-1.477,1.059
				c-0.377,0.566-0.751,1.367-0.653,1.996c0.353,2.248,0.427,4.725,1.47,6.641c3.971,7.267,8.245,14.376,12.505,21.483
				c0.657,1.093,1.021,1.93,0.403,3.128c-1.574,3.073-2.848,6.319-4.618,9.273c-9.674,16.155-16.715,33.333-20.397,51.837
				c-0.261,1.289-0.298,2.792,0.117,4.014c0.831,2.432,1.844,4.856,3.158,7.061c1.652,2.772,3.679,5.329,5.554,7.973
				c5.491,7.759,10.207,16.113,17.483,22.499c5.686,4.989,10.458,10.743,13.939,17.497c2.296,4.458,5.693,7.837,9.673,10.886
				c3.862,2.962,7.523,6.317,10.742,9.971c4.316,4.916,8.101,10.304,12.16,15.45c2.055,2.592,4.641,4.863,6.235,7.699
				c3.092,5.525,5.603,11.376,8.448,17.047c5.116,10.218,7.582,20.921,6.512,32.402c-0.571,6.129-2.8,11.382-7.012,15.871
				c-2.371,2.522-4.646,5.139-6.786,7.859c-8.968,11.373-12.177,23.936-7.981,38.135c0.731,2.463,1.277,5.426,0.594,7.781
				c-2.556,8.843-5.68,17.531-8.545,26.289c-2.17,6.622-5.058,13.035-5.496,20.162c-0.261,4.167-1.036,8.305-1.381,12.476
				c-0.48,5.843-3.292,10.255-8.119,13.325c-1.476,0.946-3.432,1.442-5.202,1.554c-2.502,0.156-5.037-0.208-7.562-0.394
				c-9.409-0.693-18.619-0.39-26.905,5.035c-3.558,2.336-7.227,4.504-10.858,6.723c-5.401,3.291-10.352,7.396-16.589,9.18
				c-6.029,1.717-12.103,3.277-18.076,5.168c-3.761,1.19-6.935,0.372-9.944-1.839c-2.323-1.708-4.565-3.53-6.925-5.188
				c-4.924-3.455-8.976-2.84-12.448,2.094c-1.893,2.695-3.524,5.601-5.009,8.551c-1.324,2.638-3.095,4.711-5.774,5.871
				c-3.303,1.432-6.652,2.775-10.025,4.035c-4.031,1.509-8.467,2.303-12.047,4.518c-2.795,1.728-5.437,3.344-8.611,4.267
				c-2.526,0.732-4.326,2.536-5.021,5.212c-0.392,1.502-0.048,2.758,1.665,2.799c2.699,0.072,5.573,0.42,8.081-0.338
				c7.042-2.131,14.14-0.869,21.594-1.23c-0.599,0.887-0.948,1.481-1.375,2.016c-3.506,4.4-7.006,8.807-10.551,13.183
				c-4.411,5.45-7.311,11.409-6.157,18.662c0.184,1.141,0.856,2.202,1.293,3.294c0.95-0.688,2.165-1.19,2.803-2.1
				c2.066-2.933,4.792-4.928,7.988-6.432c6.319-2.985,12.592-6.087,18.932-9.045c13.851-6.458,27.784-12.734,40.696-21.045
				c7.728-4.975,16.081-8.314,25.572-8.127c11.327,0.223,22.656,0.11,33.984,0.263c11.838,0.155,23.675,0.521,35.516,0.659
				c7.465,0.09,13.962-1.808,17.685-9.198c1.649-3.275,3.534-6.485,5.718-9.426c6.669-8.967,13.615-17.741,20.308-26.696
				c4.831-6.46,9.921-12.816,12.663-20.543c1.924-5.42,3.611-10.937,5.092-16.497c2.873-10.815,5.004-21.78,6.003-32.949
				c0.122-1.335,0.403-2.749,0.979-3.933c4.174-8.547,8.789-16.887,12.543-25.602c2.57-5.976,4.764-12.33,5.702-18.722
				c1.083-7.368,0.723-14.966,0.721-22.464c0-1.994,0.617-2.896,2.274-3.755C902.813,331.71,905.998,329.759,909.461,327.777z"/>
			<path fill-rule="evenodd" clip-rule="evenodd" d="M909.461,327.777c-3.463,1.981-6.647,3.933-9.959,5.64
				c-1.657,0.858-2.274,1.761-2.274,3.755c0.002,7.498,0.362,15.096-0.721,22.464c-0.938,6.392-3.132,12.746-5.702,18.722
				c-3.754,8.715-8.369,17.055-12.543,25.602c-0.576,1.184-0.857,2.598-0.979,3.933c-0.999,11.169-3.13,22.134-6.003,32.949
				c-1.48,5.561-3.168,11.077-5.092,16.497c-2.742,7.727-7.832,14.083-12.663,20.543c-6.692,8.955-13.639,17.729-20.308,26.696
				c-2.184,2.94-4.068,6.15-5.718,9.426c-3.723,7.391-10.22,9.288-17.685,9.198c-11.841-0.139-23.678-0.504-35.516-0.659
				c-11.328-0.152-22.657-0.04-33.984-0.263c-9.492-0.188-17.845,3.152-25.572,8.127c-12.913,8.311-26.846,14.587-40.696,21.045
				c-6.34,2.958-12.613,6.06-18.932,9.045c-3.196,1.504-5.922,3.499-7.988,6.432c-0.638,0.909-1.853,1.411-2.803,2.1
				c-0.437-1.092-1.109-2.153-1.293-3.294c-1.154-7.253,1.746-13.212,6.157-18.662c3.545-4.376,7.045-8.782,10.551-13.183
				c0.427-0.534,0.776-1.129,1.375-2.016c-7.455,0.361-14.552-0.9-21.594,1.23c-2.508,0.758-5.382,0.41-8.081,0.338
				c-1.713-0.041-2.057-1.297-1.665-2.799c0.695-2.676,2.496-4.479,5.021-5.212c3.175-0.923,5.816-2.539,8.611-4.267
				c3.58-2.215,8.016-3.009,12.047-4.518c3.374-1.26,6.722-2.604,10.025-4.035c2.679-1.16,4.45-3.233,5.774-5.871
				c1.485-2.95,3.117-5.855,5.009-8.551c3.472-4.934,7.524-5.549,12.448-2.094c2.36,1.658,4.602,3.48,6.925,5.188
				c3.009,2.211,6.183,3.029,9.944,1.839c5.974-1.891,12.047-3.451,18.076-5.168c6.237-1.783,11.188-5.889,16.589-9.18
				c3.632-2.219,7.301-4.387,10.858-6.723c8.286-5.425,17.497-5.729,26.905-5.035c2.526,0.186,5.061,0.55,7.562,0.394
				c1.77-0.111,3.726-0.607,5.202-1.554c4.827-3.07,7.639-7.482,8.119-13.325c0.346-4.171,1.12-8.309,1.381-12.476
				c0.438-7.127,3.326-13.54,5.496-20.162c2.865-8.758,5.989-17.446,8.545-26.289c0.684-2.355,0.138-5.318-0.594-7.781
				c-4.195-14.199-0.986-26.762,7.981-38.135c2.14-2.721,4.415-5.337,6.786-7.859c4.212-4.489,6.44-9.742,7.012-15.871
				c1.07-11.481-1.396-22.185-6.512-32.402c-2.846-5.671-5.356-11.522-8.448-17.047c-1.595-2.835-4.181-5.106-6.235-7.699
				c-4.06-5.146-7.844-10.534-12.16-15.45c-3.219-3.654-6.88-7.009-10.742-9.971c-3.98-3.049-7.377-6.428-9.673-10.886
				c-3.482-6.754-8.254-12.508-13.939-17.497c-7.277-6.386-11.992-14.739-17.483-22.499c-1.875-2.644-3.902-5.201-5.554-7.973
				c-1.314-2.204-2.328-4.628-3.158-7.061c-0.415-1.222-0.377-2.725-0.117-4.014c3.682-18.504,10.723-35.683,20.397-51.837
				c1.77-2.954,3.043-6.201,4.618-9.273c0.618-1.198,0.254-2.035-0.403-3.128c-4.26-7.107-8.534-14.217-12.505-21.483
				c-1.043-1.916-1.118-4.394-1.47-6.641c-0.098-0.628,0.276-1.429,0.653-1.996c0.319-0.49,0.924-0.925,1.477-1.059
				c0.226-0.054,0.733,0.729,0.981,1.204c1.61,3.101,2.437,6.69,5.56,8.837c0.286,0.195,0.557,0.4,1.37,0.989
				c-0.634-2.962-1.432-5.358-1.597-7.794c-0.217-3.12-0.064-6.292,0.244-9.414c0.091-0.944,1.215-1.789,1.866-2.677
				c0.686,0.922,1.74,1.758,1.992,2.784c0.676,2.79,0.887,5.688,1.514,8.492c0.608,2.724,1.508,5.379,2.294,8.122
				c1.648-0.474,2.103-1.447,2.15-2.933c0.166-5.269,0.432-10.542,0.697-15.809c0.048-0.85,0.021-1.914,0.498-2.486
				c0.695-0.829,1.744-1.564,2.782-1.873c1.318-0.389,2.399,0.583,2.462,1.811c0.142,2.84,0.093,5.715-0.112,8.564
				c-0.225,3.162-0.68,6.302-1.101,9.445c-0.201,1.458,0.284,2.203,2.168,2.249c0.498-4.511,1.051-9.066,1.476-13.63
				c0.174-1.851,0.67-3.374,2.491-4.184c1.845-0.812,2.676-0.15,2.655,1.831c-0.072,5.835-0.06,11.676,0.009,17.512
				c0.008,0.966,0.259,2.086,0.804,2.855c0.771,1.096,1.872,2.672,2.901,2.724c1.898,0.096,3.606-1.224,4.145-3.222
				c0.575-2.149,0.732-4.399,1.214-6.575c0.245-1.113,0.8-2.156,1.409-3.734c0.777,1.021,1.273,1.456,1.51,2.005
				c1.139,2.641,2.263,5.292,3.265,7.987c0.237,0.637,0.142,1.531-0.106,2.193c-3.228,8.538-8.021,16.069-14.534,22.506
				c-0.837,0.831-1.478,1.982-1.885,3.105c-3.35,9.193-6.625,18.423-9.912,27.643c-0.03,0.092,0.074,0.227,0.144,0.433
				c2.966-3.075,5.911-6.112,8.842-9.167c2.026-2.113,4.584-3.107,7.409-2.888c1.341,0.109,2.61,1.142,3.914,1.759
				c0.562,0.264,1.088,0.663,1.68,0.787c3.594,0.771,7.225,1.37,10.791,2.25c1.711,0.422,3.457,1.097,4.917,2.066
				c2.377,1.573,4.784,0.419,7.162,0.506c1.364,0.048,2.739-0.156,4.101-0.113c2.555,0.073,3.068,0.617,3.287,3.223
				c0.124,1.409-0.072,2.928,1.994,3.208c3.466,0.474,4.67,2.719,4.166,6.159c2.324-0.344,3.172,1.031,4.198,2.556
				c0.735,1.093,2.126,1.863,3.371,2.479c3.642,1.821,4.458,4.931,2.198,8.363c-1.174,1.782-2.293,3.663-3.043,5.646
				c-0.465,1.243-0.202,2.767-0.263,4.164c0.185,0.033,0.37,0.074,0.556,0.117c1.121-1.864,2.143-3.788,3.371-5.57
				c3.518-5.125,7.536-9.708,12.361-13.776c6.811-5.747,12.229-12.836,16.541-20.685c3.23-5.876,6.025-12.021,9.639-17.651
				c4.273-6.66,9.252-12.87,13.863-19.328c7.239-10.124,16.773-18.038,25.564-26.672c1.491-1.466,2.863-3.07,4.476-4.395
				c1.677-1.375,2.13-3.108,2.308-5.124c0.572-6.317,1.336-12.619,1.816-18.944c0.137-1.875-0.269-3.842-0.707-5.699
				c-0.374-1.597-1.285-3.065-1.711-4.66c-0.26-0.983-0.262-2.156,0.057-3.094c0.104-0.305,1.605-0.134,2.875-0.2
				c-0.678-1.823-1.273-3.782-2.127-5.624c-1.279-2.781-1.785-4.349,1.117-6.593c0.516-0.397,0.85-1.119,1.102-1.757
				c0.723-1.805,1.646-2.208,3.303-1.122c2.261,1.48,4.506,2.993,6.615,4.68c0.631,0.508,1.05,1.614,1.098,2.478
				c0.289,5.029,0.471,10.064,0.624,15.103c0.088,2.958-0.063,5.928,0.14,8.873c0.082,1.283,0.479,2.798,1.291,3.738
				c2.17,2.49,3.715,2.444,6.25,0.303c1.101-0.932,2.1-2.097,3.363-2.689c0.848-0.404,2.311-0.36,3.088,0.13
				c1.169,0.741,1.086,2.077,0.154,3.208c-0.139,0.166-0.239,0.368-0.398,0.513c-3.662,3.275-6.226,7.304-8.25,11.747
				c-0.416,0.912-1.3,1.807-2.197,2.281c-5.785,3.088-9.539,8.253-13.667,13.062c-5.585,6.497-8.575,14.467-12.639,21.836
				c-6.298,11.422-12.571,22.873-19.315,34.035c-3.894,6.456-8.843,12.268-13.029,18.554c-3.52,5.273-6.544,10.872-9.949,16.223
				c-2.361,3.704-5.075,7.183-7.488,10.861c-2.677,4.072-2.275,6.879,1.046,10.393c2.84,3.006,4.017,6.945,4.639,10.787
				c0.933,5.758,4.131,10.021,7.609,14.284c3.049,3.747,6.084,7.519,9.002,11.366c2.769,3.643,3.249,7.166-0.023,11.223
				c-1.314,1.632-1.314,3.268-1.09,5.251c0.354,3.111,0.075,6.284,0.276,9.418c0.189,2.914-0.008,6.103,1.136,8.647
				c2.728,6.074,4.085,12.435,5.287,18.883c0.903,4.88,1.696,9.777,2.522,14.67c1.242,7.297,4.988,13.468,8.744,19.64
				C908.077,325.58,908.619,326.43,909.461,327.777z"/>
		</g>
	</g>
</g>
<g id="Layer_3" display="none">
	
		<sodipodi:namedview  id="namedview4" inkscape:pageshadow="2" fit-margin-bottom="5" inkscape:window-height="1031" inkscape:window-width="1920" inkscape:pageopacity="0" inkscape:window-x="0" inkscape:current-layer="svg2" inkscape:window-maximized="1" inkscape:window-y="25" fit-margin-right="5" gridtolerance="10" showgrid="false" inkscape:cx="381.25267" bordercolor="#666666" inkscape:cy="52.177137" fit-margin-left="5" fit-margin-top="5" inkscape:zoom="1.2925102" pagecolor="#ffffff" objecttolerance="10" guidetolerance="10" borderopacity="1">
		</sodipodi:namedview>
	<g display="inline">
		<path d="M1-0.412V600h1599V-0.412H1z M1139.248,551.034c-0.917,0.115-3.666-1.549-6.105-3.691
			c-2.438-2.146-6.195-5.774-8.347-8.066c-2.062-2.197-12.497-15.921-4.216-1.958c0.312,0.524,1.328,2.198,3.63,6.371
			c3.667,6.641,3.712,7.01,0.904,7.316c-1.238,0.135-7.258-5.303-13.373-12.084c-6.114-6.781-12.146-12.22-13.411-12.076
			c-1.276,0.135-2.479,2.339-2.713,4.963c-0.484,5.42-4.339,10.961-7.707,11.327c-2.734,0.302-3.298,0.347-1.557-3.971
			c0.722-1.792,2.085-12.817,3.031-24.5c1.577-19.521,1.445-22.443-1.672-36.028c-1.866-8.135-7.334-25.4-12.153-38.374
			l-8.765-23.585l-15.376-12.416c-13.174-10.636-16.123-12.33-20.597-11.841c-5.912,0.644-34.087-8.799-43.497-14.58l-6.12-3.756
			l-28.338,7.033c-46.366,11.506-109.529,24.571-112.336,23.231c-0.718-0.34-4.769,1.618-9.002,4.355
			c-6.286,4.063-9.063,4.948-15.151,4.822c-4.096-0.086-19.553,0.624-34.346,1.574c-14.789,0.949-27.802,1.279-28.918,0.732
			c-1.113-0.547-10.549-0.126-20.963,0.933c-13.777,1.405-19.477,1.405-20.919,0.009c-1.091-1.053-1.642-2.633-1.227-3.503
			c1.158-2.432-19.982-1.768-24.966,0.778c-8.729,4.467-19.274,4.195-52.75-1.339c-10.746-1.777-12.379-0.832-17.648,10.219
			c-3.072,6.441-8.038,7.917-9.361,2.784c-1.055-4.092-5.506-5.06-17.983-3.92c-13.121,1.195-24.348-0.369-28.57-3.984
			c-5.66-4.847-7.128-11.442-3.752-16.854c4.633-7.417,14.642-10.85,45.613-15.638c25.476-3.94,28.586-4.13,34.703-2.12
			c9.041,2.97,11.726,2.461,22.778-4.32c5.205-3.193,10.882-5.967,12.613-6.155c1.731-0.191,6.882-2.271,11.443-4.631
			c4.563-2.354,14.081-5.534,21.155-7.062l12.861-2.78l8.345-10.886c4.592-5.986,10.115-15.627,12.276-21.422l3.929-10.535
			l-6.769-4.604c-3.724-2.531-11.178-7.205-16.566-10.391c-8.975-5.296-9.777-6.203-9.507-10.772
			c0.271-4.624-1.438-6.453-23.006-24.578c-12.814-10.771-25.548-22.011-28.298-24.978c-3.683-3.978-9.105-6.819-20.629-10.813
			c-8.596-2.982-19.135-7.403-23.419-9.83c-12.302-6.962-47.353-30.243-53.169-35.316c-13.678-11.924-24.838-14.736-32.729-8.244
			c-4.986,4.104-20.476,3.909-22.072-0.277c-0.628-1.646-2.486-2.747-4.304-2.55c-2.513,0.275-3.237-0.586-3.374-4.015
			c-0.148-3.637-1.28-4.762-6.81-6.759c-4.011-1.451-9.901-2.043-14.898-1.506c-7.218,0.779-8.19,0.521-7.68-2.017
			c0.458-2.275-0.292-2.811-3.457-2.467c-2.992,0.326-4.129-0.378-4.384-2.71c-0.22-2.025-1.394-3.033-3.29-2.827
			c-4.251,0.464-7.719-13.764-4.766-19.555c2.894-5.681,9.09-5.921,27.8-1.085c1.453,0.375,2.98,0.77,4.535,1.167
			c-8.391-10.115-12.489-23.69-10.099-37.663c4.345-25.398,28.459-42.465,53.858-38.118c25.398,4.347,42.465,28.461,38.119,53.859
			c-3.076,17.977-16.059,31.766-32.385,36.757c10.105,3.585,29.397,9.247,34.643,10.012c7.469,1.088,12.906,2.99,15.897,5.558
			c0.983,0.847,5.471,2.42,9.969,3.499c4.499,1.078,19.031,6.158,32.293,11.288c21.63,8.365,25.483,10.471,37.391,20.409
			c7.303,6.098,13.966,11.012,14.806,10.92c0.842-0.092,6.527,3.238,12.634,7.405c6.109,4.163,12.925,7.823,15.151,8.138
			c2.224,0.312,9.231,2.123,15.57,4.023c6.342,1.9,14.489,4.312,18.109,5.362c3.618,1.047,13.412,5.405,21.765,9.684
			c9.589,4.91,18.398,8.176,23.906,8.856c5.963,0.738,10.703,2.607,14.981,5.906c3.663,2.827,9.97,5.571,15.216,6.624
			c15.315,3.076,16.201,3.488,22.188,10.279c3.208,3.64,9.271,8.326,13.469,10.412c6.644,3.303,9.724,3.712,23.711,3.154
			l16.075-0.647l22.806-11.657c21.3-10.892,26.816-14.889,19.432-14.085c-4.206,0.458-11.092-1.965-12.311-4.332
			c-1.341-2.609,1.081-12.311,3.713-14.868c1.632-1.589,1.637-2.504,0.021-4.069c-1.146-1.11,0.745-6.63,1.036-8.593
			c0.29-1.961-3.087-1.557-4.343-2.773c-1.939-1.874-1.254-3.511,4.512-10.799c3.737-4.728,6.286-9.003,5.662-9.504
			c-1.595-1.278,1.599-8.867,5.773-13.715c3.033-3.52,3.222-4.645,1.4-8.235c-2.45-4.833-1.791-12.954,1.054-12.899
			c4.902,0.088,9.245-1.062,11.222-3.522c1.529-1.9,0.353-3.472,2.476-2.63c0.829,0.329,0.543,1.583,3.427,2.507
			c2.809,0.901,8.35,0.151,10.75,0.369c4.867,0.438,12.756,2.117,17.532,3.73c5.688,1.921,6.842,0.138,6.742-1.11
			c1.02-1.026,0.815,0.819,2.977,2.859c2.163,2.043,8.961,5.872,11.938,7.174c6.826,2.987,11.806,10.782,11.226,17.575
			c-0.234,2.778-0.422,10.594-0.412,17.363c0.018,13.441-0.974,15.953-13.657,34.603l-7.285,10.713l2.049,8.742
			c2.223,9.494,9.521,21.845,20.633,34.913c3.88,4.563,7.118,8.87,7.199,9.565c0.076,0.699,3.853,5.77,8.394,11.269
			c4.542,5.503,8.39,11.231,8.555,12.729c0.161,1.5,6.415,10.608,13.895,20.242c13.162,16.954,27.228,36.358,36.682,50.611
			c7.502,11.309,10.48,22.016,15.867,56.981c5.684,36.898,4.761,34.521,21.679,55.857c7.11,8.967,10.136,19.352,8.853,19.521
			c-0.836,0.113-0.734-0.443-0.714,0.312c0.018,0.584,0.854,3.231,0.874,3.771C1140.895,547.471,1141.582,550.745,1139.248,551.034z
			"/>
	</g>
</g>
</svg>
