<?xml version="1.0" encoding="utf-8"?>
<!-- Generator: Adobe Illustrator 16.0.0, SVG Export Plug-In . SVG Version: 6.00 Build 0)  -->
<!DOCTYPE svg PUBLIC "-//W3C//DTD SVG 1.1//EN" "http://www.w3.org/Graphics/SVG/1.1/DTD/svg11.dtd">
<svg version="1.1" xmlns="http://www.w3.org/2000/svg" xmlns:xlink="http://www.w3.org/1999/xlink" x="0px" y="0px" width="1600px"
	 height="600px" viewBox="0 0 1600 600" enable-background="new 0 0 1600 600" xml:space="preserve">
<g id="Layer_5">
</g>
<g id="Layer_4">
	<g>
		<path fill="#090909" d="M1-0.412V600h1599V-0.412H1z M1113.309,540.275c-10.669,1.009-18.793-3.522-26.264-9.992
			c-42.654-36.934-85.234-73.951-127.851-110.928c-0.842-0.732-1.814-1.313-2.779-2.002c-0.611,1.681-1.141,3.138-2.504,6.884
			c-3.229-6.302-5.578-10.887-8.098-15.807c-5.257,2.31-11.429,6.631-12.681-4.057c-0.108-0.929-2.146-1.567-3.183-2.466
			c-7.741-6.707-16.368-12.248-20.156-22.925c-2.461-6.938-7.755-12.482-16.839-12.015c-1.722,0.087-3.892-3.11-5.383-5.14
			c-3.076-4.187-4.979-9.768-8.916-12.668c-6.364-4.686-14.134-7.409-21.029-11.439c-9.527-5.57-15.693-14.443-21.545-23.482
			c-0.528-0.813-0.632-2.508-0.136-3.286c6.661-10.493-1.443-13.543-8.404-17.729c-5.414,5.654-10.378,6.41-16.156,0.702
			c-10.881-10.747-22.363-20.883-33.317-31.561c-6.635-6.47-12.746-13.478-19.117-20.268c-7.806,5.758-13.607,10.662-16.557,20.405
			c-2.246,7.418-0.632,10.575,2.691,16.03c9.58,15.729,18.689,31.782,27.138,48.146c5.852,11.335,7.913,23.336,2.66,36.048
			c-1.965,4.752-2.146,10.66-1.675,15.91c0.935,10.399,2.938,20.702,4.408,31.059c3.198,22.501,5.379,45.201,9.798,67.458
			c3.81,19.198,16.992,25.899,35.939,20.846c6.953-1.851,15.578,1.598,17.461,6.984c4.018,11.486-11.483,33.479-23.457,32.329
			c-8.666-0.829-12.392,3.218-14.582,10.46c-3.015,9.972-13.085,14.864-26.436,12.899c-8.305-1.224-14.228-8.575-13.648-17.905
			c1.078-17.317-3.124-33.729-8.505-49.823c-8.101-24.218-18.319-47.824-24.862-72.431c-4.418-16.615-13.396-35.179,3.225-51.18
			c0.349-0.334,0.342-1.065,0.444-1.624c1.457-7.957,1.396-15.111-6.935-19.99c-5.116-2.998-9.499-7.242-14.213-10.928
			c-0.471,0.341-1.012,0.588-1.359,0.999c-22.173,26.24-42.976,53.79-71.254,74.171c-1.137,0.819-2.532,1.832-2.925,3.041
			c-3.119,9.642-11.691,13.535-19.217,18.501c-11.402,7.522-23.202,14.49-34.238,22.514c-13.745,9.992-30.711,16.786-37.215,34.518
			c-1.22,3.328-2.579,7.939-1.231,10.637c4.897,9.781,10.403,19.359,16.662,28.328c6.709,9.611,5.952,14.437-5.009,15.717
			c-8.895,1.039-18.231,0.923-27.007-0.682c-4.942-0.905-12.149-5.146-13.083-9.116c-2.239-9.511-8.587-11.804-15.924-15.437
			c-6.46-3.194-13.653-8.441-16.44-14.623c-3.4-7.543,2.919-14.203,9.122-19.373c2.351-1.958,3.853-4.902,6.071-7.058
			c3.209-3.121,6.62-6.052,10.14-8.819c1.729-1.356,4.334-1.74,5.795-3.278c15.676-16.495,32.048-32.436,46.501-49.949
			c11.671-14.146,23.621-26.798,41.561-32.633c2.905-0.946,6.12-3.6,7.443-6.312c6.7-13.755,13.388-27.57,18.995-41.793
			c5.605-14.22,9.564-29.08,14.913-43.409c6.02-16.131,6.344-16.009-7.825-16.788c-0.702-6.944-0.157-13.16-2.085-18.479
			c-6.296-17.362-0.251-33.36,5.875-48.641c2.957-7.38,11.499-12.505,17.447-18.717c1.654-1.729,3.018-3.729,4.604-5.527
			c2.183-2.47,4.03-6.107,6.766-7.028c5.349-1.798,8.834-5.607,13.162-8.613c13.357-9.278,27.463-17.486,41.301-26.074
			c18.178-11.279,36.376-22.522,55.736-34.505c-5.786-4.013-10.668-7.389-5.47-13.546c6.16-7.295,12.775-14.265,18.334-21.99
			c6.18-8.589,14.323-12.765,24.479-13.453c5.39-0.365,10.957,0.653,16.197-0.306c3.633-0.663,7.506-2.994,10.119-5.696
			c9.113-9.415,18.537-19.12,32.83-16.105c12.642,2.663,25.162,6.994,36.873,12.445c4.281,1.993,7.275,9.011,8.672,14.312
			c1.438,5.45,0.681,11.66,0.007,17.433c-0.668,5.716-2.73,11.255-3.617,16.96c-0.68,4.372-0.73,8.888-0.602,13.325
			c0.095,3.271,0.931,6.52,1.438,9.778c-0.855-0.371-1.711-0.742-2.566-1.114c-3.579,4.252-8.225,8.005-10.503,12.867
			c-4.163,8.882-8.492,16.108-19.877,13.393c-0.003,0-0.007-0.001-0.01-0.002c0.029,0.153,0.06,0.302,0.089,0.455
			c1.498,7.832,3.079,15.281,4.467,22.604c0.072,0.382,0.148,0.766,0.22,1.147c0.196,1.051,0.381,2.098,0.567,3.145
			c0.096,0.538,0.198,1.079,0.291,1.616c0.174,1.002,0.332,2.003,0.494,3.004c0.094,0.574,0.194,1.149,0.283,1.724
			c0.243,1.571,0.471,3.142,0.68,4.715c1.079,8.136,1.156,16.604,0.227,24.756c-1.039,9.142-4.877,18.027-5.443,27.15
			c-1.199,19.364,2.784,37.512,12.143,55.174c10.305,19.445,17.475,40.53,26.699,60.584c2.223,4.832,6.421,9.748,11.008,12.288
			c8.901,4.933,12.333,12.608,15.299,21.475c1.582,4.722,4.268,9.824,7.971,12.966c21.501,18.243,43.446,35.965,65.253,53.847
			c25.995,21.314,51.943,42.688,78.101,63.805c2.606,2.103,6.52,2.59,9.828,3.827c0.672-2.881,2.232-5.892,1.831-8.612
			c-0.822-5.574-0.063-10.068,5.969-11.208c6.306-1.196,11.255,1.394,13.29,7.869
			C1139.397,523.934,1128.846,538.802,1113.309,540.275z M1153.141,560.356c-8.269,0.07-15.607-7.553-15.384-15.971
			c0.226-8.404,6.841-14.734,15.418-14.751c8.613-0.017,15.156,6.279,15.337,14.754
			C1168.695,552.975,1161.656,560.286,1153.141,560.356z"/>
		<path fill="#090909" d="M884.965,146.573c-0.109,0.016-0.225,0.111-0.256,0.156c0,0-0.001,0.001-0.001,0.001
			c-0.007,0.01-0.008,0.017-0.005,0.02c0,0,0.001,0,0.002,0.001C884.721,146.757,884.794,146.716,884.965,146.573L884.965,146.573z"
			/>
		<path fill="#090909" d="M885.351,146.229c-0.107,0.102-0.19,0.176-0.265,0.241c-0.045,0.04-0.084,0.074-0.121,0.104
			c0.023-0.003,0.047-0.01,0.068-0.004c0.137,0.035,0.267,0.062,0.401,0.094C885.407,146.517,885.378,146.375,885.351,146.229z"/>
		<path fill="#090909" d="M885.033,146.569c0.137,0.035,0.268,0.062,0.401,0.094l0,0C885.3,146.631,885.17,146.604,885.033,146.569z
			"/>
		<path fill="#090909" d="M885.523,147.118c-0.029-0.153-0.06-0.302-0.089-0.455l0,0
			C885.464,146.816,885.494,146.965,885.523,147.118z"/>
		<path fill="#090909" d="M885.086,146.469c-0.043,0.037-0.085,0.074-0.121,0.104l0,0
			C885.002,146.543,885.041,146.509,885.086,146.469z"/>
		<path fill="#090909" d="M884.705,146.751c-0.001,0-0.002,0-0.002-0.001C884.703,146.751,884.704,146.751,884.705,146.751z"/>
		<path fill="#090909" d="M884.708,146.73C884.708,146.73,884.709,146.73,884.708,146.73
			C884.709,146.73,884.708,146.73,884.708,146.73z"/>
		<polygon fill="#090909" points="884.965,146.573 884.965,146.573 884.965,146.573 		"/>
		<path fill="#090909" d="M885.444,146.665c11.385,2.716,15.714-4.511,19.877-13.393
			C901.157,142.154,896.829,149.38,885.444,146.665z"/>
		<path fill="#090909" d="M890.777,174.013c0.096,0.538,0.198,1.079,0.291,1.616C890.976,175.091,890.873,174.551,890.777,174.013z"
			/>
		<path fill="#090909" d="M889.99,169.721c0.072,0.382,0.148,0.766,0.22,1.147C890.139,170.487,890.062,170.103,889.99,169.721z"/>
		<path fill="#090909" d="M891.562,178.633c0.094,0.574,0.194,1.149,0.283,1.724C891.757,179.782,891.656,179.207,891.562,178.633z"
			/>
		<path fill="#090909" d="M885.523,147.118c1.498,7.831,3.079,15.283,4.467,22.604C888.603,162.399,887.021,154.949,885.523,147.118
			z"/>
		<path fill="#090909" d="M884.703,146.75c-0.003-0.003-0.002-0.01,0.005-0.02C884.7,146.742,884.7,146.747,884.703,146.75z"/>
		<path fill="#090909" d="M890.21,170.868c0.196,1.051,0.381,2.098,0.567,3.145C890.591,172.966,890.406,171.919,890.21,170.868z"/>
		<path fill="#090909" d="M891.846,180.357c0.243,1.571,0.471,3.142,0.68,4.715C892.316,183.499,892.089,181.928,891.846,180.357z"
			/>
		<path fill="#090909" d="M891.068,175.628c0.174,1.002,0.332,2.003,0.494,3.004C891.4,177.632,891.242,176.631,891.068,175.628z"/>
		<path fill="#090909" d="M884.705,146.751c0.013,0.009,0.089-0.035,0.26-0.178l0,0
			C884.794,146.716,884.721,146.757,884.705,146.751z"/>
		<path fill="#090909" d="M884.965,146.573c-0.109,0.016-0.222,0.107-0.256,0.156C884.74,146.685,884.855,146.589,884.965,146.573z"
			/>
		<polygon fill="#090909" points="885.435,146.663 885.444,146.665 885.435,146.663 		"/>
		<rect x="885.435" y="146.663" fill="#090909" width="0" height="0"/>
		<path fill="#090909" d="M885.086,146.469c0.074-0.065,0.157-0.139,0.265-0.241C885.244,146.329,885.163,146.401,885.086,146.469z"
			/>
		<path fill="#090909" d="M885.435,146.663c-0.027-0.146-0.057-0.288-0.084-0.435C885.378,146.375,885.407,146.517,885.435,146.663
			L885.435,146.663z"/>
		<path fill="#090909" d="M884.965,146.573c0.023-0.003,0.047-0.01,0.068-0.004C885.012,146.563,884.988,146.57,884.965,146.573
			L884.965,146.573z"/>
		<rect x="884.965" y="146.573" fill="#090909" width="0" height="0"/>
		<path fill="#090909" d="M797.484,220.704c-0.475,0.837-0.949,1.675-1.427,2.51c7.828,10.684,14.975,21.966,23.68,31.879
			c8.209,9.349,18.06,17.256,27.536,26.121c2.477-0.524,6.019-1.276,9.852-2.087c-1.116-22.448-2.315-46.532-3.652-73.4
			C837.349,224.313,818.323,226.235,797.484,220.704z"/>
		<path fill="#090909" d="M842.702,103.517c-2.322-10.811-4.359-20.3-6.874-32.011c-1.474,9.4-3.659,17.123-3.333,24.737
			C832.604,98.805,839.104,101.091,842.702,103.517z"/>
	</g>
</g>
<g id="Layer_1" display="none">
	<g display="inline">
		<path fill="#090909" d="M1-0.412V600h1599V-0.412H1z M1143.933,505.075c-0.254,4.115-3.051,7.369-8.015,6.979
			c-3.854-0.304-6.716-2.008-7.346-6.199c-2.607-17.368-9.551-31.671-26.921-38.869c-1.468-0.609-3.018-2.28-3.515-3.793
			c-7.017-21.342-25.598-30.557-43.631-38.243c-33.001-14.062-66.266-28.751-100.849-37.568
			c-52.638-13.421-101.344-33.078-142.841-68.556c-8.762-7.492-17.139-8.367-25.924-1.818
			c-23.628,17.62-50.883,27.183-78.291,36.715c-19.3,6.713-23.319,11.332-21.627,31.801c2.388,28.898-9.567,55.177-12.618,83.043
			c-1.76,16.056,2.124,32.578-4.131,48.17c3.818,4.559,9.474,7.009,11.567,13.705c5.046,16.136,2.85,20.71-13.517,23.987
			c-17.622,3.524-35.316,6.775-52.782,10.97c-11.229,2.698-21.851-0.116-32.634-1.636c-3.628-0.512-8.069-2.021-7.46-7.479
			c0.502-4.483,3.146-7.749,7.588-7.682c17.449,0.265,28.305-8.225,38.062-22.495c6.136-8.983,19.715-9.848,30.797-12.102
			c-10.006-2.876-12.888-9.028-9.359-18.866c1.296-3.611,1.625-7.771,1.506-11.656c-1.303-43.025,2.203-86.143-2.581-129.103
			c-1.168-10.471,2.541-18.932,11.616-24.846c10.743-7.002,19.456-16.105,27.588-26.002c11.609-14.127,27.572-22.907,42.646-32.652
			c5.478-3.545,11.551-6.174,18.817-9.987c-9.604-8.643-18.075-17.223-27.537-24.512c-10.655-8.214-20.07-17.125-25.171-29.799
			c-1.897-4.717-5.064-8.566-9.056-11.089c-17.528-11.08-24.003-28.58-27.964-47.404c-2.915-13.869-15.13-20.797-28.156-15.176
			c-18.646,8.04-32.424,1.706-37.78-17.338c-0.96-3.417,1.337-5.909,2.43-8.671c1.47-3.723,3.83-7.275-0.161-10.736
			c-5.737-4.977-3.914-11.304-2.967-17.263c2.348-14.751,22.334-30.422,39.702-31.47c14.783-0.89,28.484,9.979,32.487,27.173
			c2.332,10.021,5.098,13.629,16.45,9.329c26.27-9.943,55.093-9.586,81.752-18.411c4.465-1.479,7.845,0.334,11.271,1.912
			c36.098,16.628,77.039,20.017,111.595,41.13c6.229,3.808,14.49,2.349,21.716-1.021c4.995-2.332,9.932-5.331,17.108-5.005
			c-4.038,8.491-13.621,7.947-19.055,14.602c8.241,2.617,15.273-2.039,22.579-2.371c5.224-0.235,5.219-0.329,4.75,6.06
			c-0.25,3.398,6.587,8.391,14.245,6.911c15.562-3.007,17.537,5.734,19.96,17.577c1.894,9.248-2.107,12.504-9.107,14.098
			c-14.046,3.195-27.759,2.248-40.598-5.188c-3.784-2.194-7.836-3.939-11.812-5.788c-3.728-1.732-7.324-3.772-3.445,3.293
			c1.515,2.761-2.03,3.34-4.132,2.896c-8.962-1.886-18.868-2.764-25.202-9.894c-12.819-14.432-31.181-17.06-47.575-23.774
			c-4.649-1.902-10.33-1.086-15.36,1.594c-4.241,2.257-8.75,4.181-13.346,5.569c-25.784,7.791-26.046,8.453-10.858,30.921
			c4.673,6.909,9.154,13.943,13.748,20.906c8.243,12.494,16.59,23.875,32.531,28.778c18.794,5.781,29.132,20.836,31.762,40.164
			c1.828,13.438,7.603,21.602,20.691,27.257c20.299,8.771,33.853,26.444,46.981,43.502c9.846,12.788,22.62,19.382,37.616,22.164
			c23.266,4.315,44.229,12.533,63.231,27.415c18.94,14.831,38.803,28.84,62.045,36.964c5.425,1.896,9.435,3.021,14.46-1.041
			c3.228-2.606,7.905-3.914,12.14-4.691c9.48-1.741,16.699-0.833,18.058,11.893c2.514,23.583,12.714,45.562,15.601,69.223
			C1146.703,489.723,1144.416,497.249,1143.933,505.075z"/>
	</g>
</g>
<g id="Layer_3" display="none">
	
		<sodipodi:namedview  id="namedview4" inkscape:pageshadow="2" fit-margin-bottom="5" inkscape:window-height="1031" inkscape:window-width="1920" inkscape:pageopacity="0" inkscape:window-x="0" inkscape:current-layer="svg2" inkscape:window-maximized="1" inkscape:window-y="25" fit-margin-right="5" gridtolerance="10" showgrid="false" inkscape:cx="381.25267" bordercolor="#666666" inkscape:cy="52.177137" fit-margin-left="5" fit-margin-top="5" inkscape:zoom="1.2925102" pagecolor="#ffffff" objecttolerance="10" guidetolerance="10" borderopacity="1">
		</sodipodi:namedview>
	<g display="inline">
		<path d="M1-0.412V600h1599V-0.412H1z M1139.248,551.034c-0.917,0.115-3.666-1.549-6.105-3.691
			c-2.438-2.146-6.195-5.774-8.347-8.066c-2.062-2.197-12.497-15.921-4.216-1.958c0.312,0.524,1.328,2.198,3.63,6.371
			c3.667,6.641,3.712,7.01,0.904,7.316c-1.238,0.135-7.258-5.303-13.373-12.084c-6.114-6.781-12.146-12.22-13.411-12.076
			c-1.276,0.135-2.479,2.339-2.713,4.963c-0.484,5.42-4.339,10.961-7.707,11.327c-2.734,0.302-3.298,0.347-1.557-3.971
			c0.722-1.792,2.085-12.817,3.031-24.5c1.577-19.521,1.445-22.443-1.672-36.028c-1.866-8.135-7.334-25.4-12.153-38.374
			l-8.765-23.585l-15.376-12.416c-13.174-10.636-16.123-12.33-20.597-11.841c-5.912,0.644-34.087-8.799-43.497-14.58l-6.12-3.756
			l-28.338,7.033c-46.366,11.506-109.529,24.571-112.336,23.231c-0.718-0.34-4.769,1.618-9.002,4.355
			c-6.286,4.063-9.063,4.948-15.151,4.822c-4.096-0.086-19.553,0.624-34.346,1.574c-14.789,0.949-27.802,1.279-28.918,0.732
			c-1.113-0.547-10.549-0.126-20.963,0.933c-13.777,1.405-19.477,1.405-20.919,0.009c-1.091-1.053-1.642-2.633-1.227-3.503
			c1.158-2.432-19.982-1.768-24.966,0.778c-8.729,4.467-19.274,4.195-52.75-1.339c-10.746-1.777-12.379-0.832-17.648,10.219
			c-3.072,6.441-8.038,7.917-9.361,2.784c-1.055-4.092-5.506-5.06-17.983-3.92c-13.121,1.195-24.348-0.369-28.57-3.984
			c-5.66-4.847-7.128-11.442-3.752-16.854c4.633-7.417,14.642-10.85,45.613-15.638c25.476-3.94,28.586-4.13,34.703-2.12
			c9.041,2.97,11.726,2.461,22.778-4.32c5.205-3.193,10.882-5.967,12.613-6.155c1.731-0.191,6.882-2.271,11.443-4.631
			c4.563-2.354,14.081-5.534,21.155-7.062l12.861-2.78l8.345-10.886c4.592-5.986,10.115-15.627,12.276-21.422l3.929-10.535
			l-6.769-4.604c-3.724-2.531-11.178-7.205-16.566-10.391c-8.975-5.296-9.777-6.203-9.507-10.772
			c0.271-4.624-1.438-6.453-23.006-24.578c-12.814-10.771-25.548-22.011-28.298-24.978c-3.683-3.978-9.105-6.819-20.629-10.813
			c-8.596-2.982-19.135-7.403-23.419-9.83c-12.302-6.962-47.353-30.243-53.169-35.316c-13.678-11.924-24.838-14.736-32.729-8.244
			c-4.986,4.104-20.476,3.909-22.072-0.277c-0.628-1.646-2.486-2.747-4.304-2.55c-2.513,0.275-3.237-0.586-3.374-4.015
			c-0.148-3.637-1.28-4.762-6.81-6.759c-4.011-1.451-9.901-2.043-14.898-1.506c-7.218,0.779-8.19,0.521-7.68-2.017
			c0.458-2.275-0.292-2.811-3.457-2.467c-2.992,0.326-4.129-0.378-4.384-2.71c-0.22-2.025-1.394-3.033-3.29-2.827
			c-4.251,0.464-7.719-13.764-4.766-19.555c2.894-5.681,9.09-5.921,27.8-1.085c1.453,0.375,2.98,0.77,4.535,1.167
			c-8.391-10.115-12.489-23.69-10.099-37.663c4.345-25.398,28.459-42.465,53.858-38.118c25.398,4.347,42.465,28.461,38.119,53.859
			c-3.076,17.977-16.059,31.766-32.385,36.757c10.105,3.585,29.397,9.247,34.643,10.012c7.469,1.088,12.906,2.99,15.897,5.558
			c0.983,0.847,5.471,2.42,9.969,3.499c4.499,1.078,19.031,6.158,32.293,11.288c21.63,8.365,25.483,10.471,37.391,20.409
			c7.303,6.098,13.966,11.012,14.806,10.92c0.842-0.092,6.527,3.238,12.634,7.405c6.109,4.163,12.925,7.823,15.151,8.138
			c2.224,0.312,9.231,2.123,15.57,4.023c6.342,1.9,14.489,4.312,18.109,5.362c3.618,1.047,13.412,5.405,21.765,9.684
			c9.589,4.91,18.398,8.176,23.906,8.856c5.963,0.738,10.703,2.607,14.981,5.906c3.663,2.827,9.97,5.571,15.216,6.624
			c15.315,3.076,16.201,3.488,22.188,10.279c3.208,3.64,9.271,8.326,13.469,10.412c6.644,3.303,9.724,3.712,23.711,3.154
			l16.075-0.647l22.806-11.657c21.3-10.892,26.816-14.889,19.432-14.085c-4.206,0.458-11.092-1.965-12.311-4.332
			c-1.341-2.609,1.081-12.311,3.713-14.868c1.632-1.589,1.637-2.504,0.021-4.069c-1.146-1.11,0.745-6.63,1.036-8.593
			c0.29-1.961-3.087-1.557-4.343-2.773c-1.939-1.874-1.254-3.511,4.512-10.799c3.737-4.728,6.286-9.003,5.662-9.504
			c-1.595-1.278,1.599-8.867,5.773-13.715c3.033-3.52,3.222-4.645,1.4-8.235c-2.45-4.833-1.791-12.954,1.054-12.899
			c4.902,0.088,9.245-1.062,11.222-3.522c1.529-1.9,0.353-3.472,2.476-2.63c0.829,0.329,0.543,1.583,3.427,2.507
			c2.809,0.901,8.35,0.151,10.75,0.369c4.867,0.438,12.756,2.117,17.532,3.73c5.688,1.921,6.842,0.138,6.742-1.11
			c1.02-1.026,0.815,0.819,2.977,2.859c2.163,2.043,8.961,5.872,11.938,7.174c6.826,2.987,11.806,10.782,11.226,17.575
			c-0.234,2.778-0.422,10.594-0.412,17.363c0.018,13.441-0.974,15.953-13.657,34.603l-7.285,10.713l2.049,8.742
			c2.223,9.494,9.521,21.845,20.633,34.913c3.88,4.563,7.118,8.87,7.199,9.565c0.076,0.699,3.853,5.77,8.394,11.269
			c4.542,5.503,8.39,11.231,8.555,12.729c0.161,1.5,6.415,10.608,13.895,20.242c13.162,16.954,27.228,36.358,36.682,50.611
			c7.502,11.309,10.48,22.016,15.867,56.981c5.684,36.898,4.761,34.521,21.679,55.857c7.11,8.967,10.136,19.352,8.853,19.521
			c-0.836,0.113-0.734-0.443-0.714,0.312c0.018,0.584,0.854,3.231,0.874,3.771C1140.895,547.471,1141.582,550.745,1139.248,551.034z
			"/>
	</g>
</g>
</svg>
