<?xml version="1.0" encoding="utf-8"?>
<!-- Generator: Adobe Illustrator 16.0.0, SVG Export Plug-In . SVG Version: 6.00 Build 0)  -->
<!DOCTYPE svg PUBLIC "-//W3C//DTD SVG 1.1//EN" "http://www.w3.org/Graphics/SVG/1.1/DTD/svg11.dtd">
<svg version="1.1" xmlns="http://www.w3.org/2000/svg" xmlns:xlink="http://www.w3.org/1999/xlink" x="0px" y="0px" width="1600px"
	 height="600px" viewBox="0 0 1600 600" enable-background="new 0 0 1600 600" xml:space="preserve">
<g id="Layer_5">
</g>
<g id="Layer_4">
</g>
<g id="Layer_1" display="none">
	<g id="s8mxYQ_1_" display="inline">
		<g>
			<path fill="none" d="M453.29,199.3c-4.192,0.853-9.33,1.18-11.652,4.578c-3.69,5.399-7.798,8.61-14.399,8.511
				c-1.681-0.025-2.681,1.21-2.871,2.906c-0.23,2.064,1.45,2.636,2.822,2.829c4.079,0.575,8.098,1.64,12.347,0.619
				c6.608-1.587,13.302-2.816,19.969-4.15c6.191-1.239,7.023-2.971,5.114-9.075c-0.792-2.533-2.932-3.46-4.377-5.185
				c2.367-5.899,0.898-12.15,1.563-18.225c1.154-10.543,5.678-20.485,4.774-31.418c-0.64-7.744,0.88-9.492,8.182-12.031
				c10.37-3.606,20.681-7.225,29.621-13.891c3.323-2.478,6.493-2.146,9.808,0.688c15.7,13.423,34.127,20.859,54.042,25.938
				c13.084,3.336,25.669,8.893,38.154,14.213c6.823,2.908,13.853,6.395,16.507,14.469c0.188,0.572,0.774,1.205,1.331,1.436
				c6.571,2.723,9.198,8.135,10.185,14.705c0.238,1.586,1.321,2.23,2.779,2.346c1.878,0.147,2.936-1.084,3.032-2.641
				c0.183-2.961,1.048-5.809,0.671-8.889c-1.092-8.951-4.951-17.268-5.902-26.189c-0.514-4.814-3.245-5.158-6.832-4.499
				c-1.602,0.294-3.371,0.788-4.593,1.774c-1.901,1.537-3.418,1.111-5.47,0.395c-8.793-3.074-16.308-8.374-23.474-13.985
				c-7.189-5.63-15.12-8.739-23.922-10.372c-5.674-1.053-10.507-3.547-14.231-8.386c-4.967-6.453-10.095-13.14-17.775-16.458
				c-4.952-2.14-7.136-5.229-7.828-10.312c-0.995-7.312-4.906-13.008-12.016-15.195c-6.031-1.855-9.189-6.161-12.308-10.888
				c-1.738-2.634-3.434-5.296-5.201-7.91c-5.746-8.5-5.647-8.751,4.107-11.699c1.739-0.525,3.445-1.253,5.049-2.107
				c1.903-1.014,4.053-1.322,5.811-0.603c6.203,2.54,13.15,3.535,18,8.994c2.396,2.698,6.145,3.03,9.535,3.744
				c0.794,0.167,2.136-0.051,1.563-1.096c-1.467-2.673-0.106-1.901,1.303-1.246c1.505,0.699,3.038,1.36,4.47,2.19
				c4.857,2.813,10.045,3.172,15.359,1.963c2.649-0.603,4.163-1.835,3.446-5.334c-0.917-4.48-1.664-7.787-7.552-6.65
				c-2.897,0.56-5.484-1.329-5.389-2.615c0.177-2.417,0.179-2.381-1.797-2.292c-2.764,0.125-5.425,1.886-8.543,0.896
				c2.056-2.518,5.682-2.312,7.21-5.524c-2.715-0.124-4.583,1.011-6.473,1.893c-2.734,1.275-5.859,1.827-8.216,0.387
				c-13.073-7.989-28.563-9.271-42.22-15.562c-1.296-0.597-2.575-1.283-4.265-0.723c-10.085,3.339-20.991,3.204-30.929,6.966
				c-4.295,1.626-5.342,0.261-6.224-3.53c-1.514-6.505-6.698-10.617-12.291-10.28c-6.571,0.396-14.132,6.325-15.021,11.906
				c-0.359,2.254-1.048,4.648,1.123,6.53c1.51,1.31,0.617,2.654,0.061,4.062c-0.413,1.044-1.282,1.988-0.919,3.281
				c2.026,7.204,7.239,9.601,14.293,6.559c4.929-2.126,9.549,0.495,10.653,5.742c1.499,7.122,3.948,13.743,10.579,17.935
				c1.51,0.955,2.708,2.411,3.426,4.195c1.93,4.795,5.492,8.167,9.523,11.274c3.58,2.758,6.784,6.004,10.418,9.273
				c-2.749,1.443-5.046,2.438-7.12,3.778c-5.703,3.688-11.742,7.009-16.134,12.354c-3.076,3.744-6.373,7.188-10.438,9.837
				c-3.433,2.237-4.836,5.438-4.395,9.4c1.811,16.253,0.484,32.565,0.977,48.844c0.044,1.47-0.08,3.044-0.57,4.41
				C448.414,195.884,449.504,198.212,453.29,199.3z"/>
			<path fill-rule="evenodd" clip-rule="evenodd" fill="#080808" d="M453.29,199.3c-3.786-1.088-4.876-3.416-3.541-7.138
				c0.49-1.366,0.615-2.94,0.57-4.41c-0.493-16.278,0.833-32.591-0.977-48.844c-0.441-3.962,0.961-7.163,4.395-9.4
				c4.065-2.649,7.362-6.093,10.438-9.837c4.392-5.346,10.431-8.667,16.134-12.354c2.073-1.341,4.371-2.335,7.12-3.778
				c-3.634-3.27-6.838-6.516-10.418-9.273c-4.031-3.107-7.593-6.479-9.523-11.274c-0.718-1.784-1.916-3.241-3.426-4.195
				c-6.631-4.192-9.081-10.813-10.579-17.935c-1.104-5.247-5.724-7.868-10.653-5.742c-7.054,3.042-12.267,0.646-14.293-6.559
				c-0.363-1.293,0.506-2.236,0.919-3.281c0.556-1.408,1.449-2.753-0.061-4.062c-2.17-1.882-1.481-4.276-1.123-6.53
				c0.889-5.581,8.45-11.51,15.021-11.906c5.593-0.337,10.776,3.775,12.291,10.28c0.882,3.791,1.929,5.156,6.224,3.53
				c9.938-3.762,20.844-3.627,30.929-6.966c1.689-0.56,2.968,0.126,4.265,0.723c13.657,6.291,29.147,7.573,42.22,15.562
				c2.356,1.44,5.482,0.888,8.216-0.387c1.89-0.882,3.758-2.017,6.473-1.893c-1.528,3.212-5.154,3.006-7.21,5.524
				c3.118,0.99,5.779-0.771,8.543-0.896c1.977-0.089,1.975-0.125,1.797,2.292c-0.095,1.286,2.492,3.174,5.389,2.615
				c5.888-1.137,6.635,2.17,7.552,6.65c0.716,3.499-0.797,4.731-3.446,5.334c-5.313,1.208-10.502,0.85-15.359-1.963
				c-1.432-0.83-2.965-1.491-4.47-2.19c-1.41-0.655-2.771-1.427-1.303,1.246c0.573,1.045-0.769,1.264-1.563,1.096
				c-3.391-0.714-7.139-1.046-9.535-3.744c-4.85-5.459-11.797-6.454-18-8.994c-1.758-0.72-3.908-0.411-5.811,0.603
				c-1.604,0.854-3.311,1.582-5.049,2.107c-9.755,2.948-9.854,3.198-4.107,11.699c1.767,2.614,3.463,5.276,5.201,7.91
				c3.119,4.727,6.277,9.032,12.308,10.888c7.11,2.188,11.021,7.883,12.016,15.195c0.692,5.084,2.876,8.173,7.828,10.312
				c7.68,3.318,12.808,10.005,17.775,16.458c3.725,4.839,8.557,7.333,14.231,8.386c8.802,1.633,16.733,4.742,23.922,10.372
				c7.166,5.611,14.681,10.911,23.474,13.985c2.052,0.717,3.569,1.143,5.47-0.395c1.222-0.986,2.991-1.48,4.593-1.774
				c3.587-0.659,6.318-0.315,6.832,4.499c0.951,8.922,4.811,17.238,5.902,26.189c0.377,3.08-0.488,5.928-0.671,8.889
				c-0.097,1.557-1.154,2.788-3.032,2.641c-1.458-0.115-2.541-0.76-2.779-2.346c-0.986-6.57-3.613-11.982-10.185-14.705
				c-0.556-0.23-1.143-0.863-1.331-1.436c-2.654-8.074-9.684-11.561-16.507-14.469c-12.485-5.32-25.07-10.877-38.154-14.213
				c-19.915-5.078-38.342-12.515-54.042-25.938c-3.315-2.834-6.484-3.165-9.808-0.688c-8.939,6.666-19.251,10.284-29.621,13.891
				c-7.302,2.539-8.822,4.287-8.182,12.031c0.904,10.933-3.62,20.875-4.774,31.418c-0.665,6.074,0.804,12.325-1.563,18.225
				C457.926,199.989,455.608,199.645,453.29,199.3z"/>
			<path fill-rule="evenodd" clip-rule="evenodd" fill="#090909" d="M453.29,199.3c2.318,0.345,4.636,0.689,6.953,1.033
				c1.445,1.725,3.584,2.651,4.377,5.185c1.909,6.104,1.078,7.836-5.114,9.075c-6.667,1.334-13.361,2.563-19.969,4.15
				c-4.249,1.021-8.268-0.044-12.347-0.619c-1.373-0.193-3.053-0.765-2.822-2.829c0.189-1.696,1.19-2.932,2.871-2.906
				c6.602,0.1,10.709-3.111,14.399-8.511C443.96,200.479,449.098,200.152,453.29,199.3z"/>
		</g>
	</g>
</g>
<g id="Layer_2" display="none">
	<g id="b0RvSS_1_" display="inline">
		<g>
			<path fill="#FFFFFF" d="M554.761,127.282c-0.338-0.542-0.556-0.883-0.765-1.228c-1.511-2.482-3.018-4.964-3.516-7.899
				c-0.333-1.968-0.652-3.938-1.015-5.9c-0.483-2.594-1.03-5.152-2.126-7.596c-0.46-1.023-0.382-2.306-0.458-3.478
				c-0.082-1.26,0.031-2.537-0.111-3.788c-0.09-0.798-0.09-1.456,0.438-2.112c1.317-1.632,1.124-3.049,0.011-4.515
				c-1.174-1.547-2.395-3.064-3.622-4.571c-1.398-1.715-2.685-3.43-3.06-5.746c-0.25-1.545-0.724-3.129-1.866-4.338
				c-1.336-1.413-1.498-2.543-0.421-4.181c0.971-1.479,2.062-2.879,3.011-4.369c1.37-2.152,2.586-4.404,4.001-6.525
				c1.685-2.528,3.675-4.866,5.242-7.463c2.712-4.49,5.235-9.095,7.769-13.689c1.634-2.964,2.836-6.17,5.084-8.783
				c1.66-1.934,3.168-4.012,5.497-5.253c0.361-0.191,0.716-0.551,0.884-0.918c0.814-1.787,1.846-3.407,3.318-4.725
				c0.064-0.058,0.104-0.14,0.161-0.206c0.374-0.455,0.408-0.992-0.062-1.291c-0.312-0.197-0.901-0.215-1.242-0.052
				c-0.507,0.239-0.909,0.707-1.353,1.082c-1.019,0.861-1.64,0.88-2.514-0.122c-0.326-0.378-0.486-0.988-0.52-1.504
				c-0.082-1.184-0.021-2.378-0.056-3.568c-0.062-2.026-0.135-4.051-0.251-6.075c-0.019-0.347-0.188-0.792-0.442-0.997
				c-0.849-0.679-1.751-1.287-2.661-1.882c-0.667-0.438-1.038-0.275-1.329,0.451c-0.101,0.257-0.236,0.547-0.443,0.707
				c-1.167,0.902-0.964,1.533-0.449,2.652c0.343,0.741,0.583,1.529,0.855,2.262c-0.511,0.027-1.115-0.042-1.157,0.081
				c-0.128,0.377-0.127,0.849-0.022,1.244c0.171,0.642,0.538,1.232,0.688,1.875c0.176,0.747,0.339,1.538,0.283,2.292
				c-0.192,2.544-0.5,5.079-0.73,7.62c-0.072,0.811-0.254,1.508-0.928,2.061c-0.647,0.533-1.2,1.177-1.8,1.767
				c-3.536,3.473-7.371,6.657-10.282,10.729c-1.855,2.597-3.857,5.095-5.576,7.773c-1.453,2.265-2.578,4.736-3.877,7.1
				c-1.735,3.156-3.914,6.008-6.653,8.319c-1.941,1.637-3.557,3.48-4.973,5.541c-0.494,0.717-0.905,1.491-1.355,2.24
				c-0.074-0.017-0.149-0.033-0.223-0.047c0.025-0.562-0.082-1.175,0.105-1.674c0.301-0.798,0.751-1.555,1.224-2.271
				c0.908-1.38,0.58-2.631-0.884-3.364c-0.501-0.248-1.06-0.558-1.355-0.997c-0.414-0.613-0.754-1.167-1.689-1.028
				c0.203-1.384-0.281-2.287-1.674-2.478c-0.832-0.113-0.753-0.724-0.803-1.291c-0.088-1.048-0.295-1.267-1.322-1.296
				c-0.547-0.018-1.1,0.064-1.649,0.045c-0.958-0.035-1.925,0.429-2.881-0.204c-0.587-0.39-1.29-0.661-1.978-0.831
				c-1.433-0.354-2.894-0.594-4.34-0.904c-0.238-0.05-0.45-0.21-0.675-0.317c-0.525-0.248-1.035-0.664-1.574-0.707
				c-1.136-0.088-2.166,0.311-2.98,1.161c-1.179,1.229-2.363,2.451-3.556,3.687c-0.028-0.083-0.07-0.137-0.058-0.174
				c1.322-3.708,2.64-7.421,3.987-11.119c0.164-0.452,0.421-0.915,0.758-1.249c2.62-2.589,4.548-5.619,5.846-9.052
				c0.1-0.266,0.138-0.626,0.043-0.882c-0.403-1.084-0.855-2.15-1.313-3.212c-0.095-0.221-0.294-0.396-0.607-0.807
				c-0.245,0.634-0.468,1.054-0.566,1.502c-0.194,0.875-0.257,1.78-0.488,2.645c-0.216,0.804-0.904,1.334-1.667,1.296
				c-0.414-0.021-0.856-0.655-1.167-1.096c-0.219-0.31-0.32-0.76-0.323-1.148c-0.028-2.347-0.033-4.696-0.004-7.043
				c0.009-0.797-0.326-1.064-1.067-0.737c-0.732,0.326-0.932,0.939-1.002,1.684c-0.171,1.836-0.394,3.667-0.594,5.482
				c-0.758-0.019-0.953-0.318-0.872-0.905c0.17-1.264,0.353-2.527,0.443-3.799c0.082-1.146,0.102-2.302,0.045-3.445
				c-0.025-0.493-0.46-0.884-0.99-0.729c-0.417,0.125-0.839,0.42-1.119,0.753c-0.191,0.23-0.181,0.658-0.2,1
				c-0.106,2.118-0.213,4.239-0.28,6.358c-0.019,0.598-0.202,0.989-0.865,1.18c-0.316-1.103-0.678-2.171-0.922-3.267
				c-0.252-1.128-0.337-2.293-0.609-3.416c-0.101-0.413-0.525-0.749-0.801-1.12c-0.261,0.357-0.713,0.697-0.75,1.077
				c-0.124,1.255-0.185,2.531-0.098,3.787c0.067,0.979,0.387,1.943,0.643,3.135c-0.327-0.237-0.436-0.32-0.551-0.398
				c-1.257-0.864-1.589-2.308-2.237-3.555c-0.1-0.191-0.304-0.506-0.394-0.484c-0.223,0.054-0.466,0.229-0.595,0.426
				c-0.152,0.228-0.302,0.55-0.263,0.803c0.142,0.904,0.172,1.901,0.592,2.671c1.597,2.922,3.316,5.782,5.03,8.641
				c0.264,0.439,0.41,0.776,0.162,1.258c-0.633,1.236-1.146,2.542-1.857,3.73c-3.891,6.497-6.724,13.407-8.205,20.85
				c-0.104,0.519-0.12,1.124,0.047,1.614c0.334,0.979,0.742,1.954,1.271,2.84c0.665,1.115,1.479,2.143,2.233,3.207
				c2.209,3.121,4.105,6.481,7.032,9.05c2.287,2.006,4.206,4.32,5.607,7.037c0.923,1.793,2.29,3.152,3.891,4.379
				c1.553,1.191,3.026,2.541,4.32,4.011c1.738,1.977,3.259,4.145,4.892,6.214c0.826,1.043,1.866,1.956,2.507,3.097
				c1.244,2.223,2.253,4.576,3.398,6.856c2.058,4.109,3.05,8.416,2.619,13.033c-0.23,2.465-1.126,4.578-2.82,6.384
				c-0.953,1.015-1.868,2.067-2.729,3.162c-3.607,4.574-4.897,9.627-3.21,15.338c0.294,0.991,0.514,2.182,0.239,3.129
				c-1.028,3.557-2.285,7.052-3.438,10.574c-0.872,2.663-2.034,5.243-2.21,8.11c-0.105,1.676-0.417,3.34-0.555,5.018
				c-0.193,2.35-1.325,4.125-3.266,5.359c-0.594,0.381-1.38,0.581-2.092,0.625c-1.007,0.063-2.026-0.083-3.042-0.158
				c-3.784-0.279-7.489-0.157-10.821,2.025c-1.431,0.939-2.907,1.811-4.368,2.704c-2.172,1.324-4.164,2.976-6.672,3.692
				c-2.425,0.691-4.868,1.319-7.271,2.08c-1.512,0.479-2.79,0.15-4-0.74c-0.935-0.687-1.836-1.419-2.786-2.087
				c-1.98-1.389-3.61-1.142-5.007,0.843c-0.761,1.083-1.417,2.253-2.015,3.439c-0.532,1.061-1.245,1.895-2.322,2.361
				c-1.328,0.576-2.675,1.116-4.032,1.624c-1.621,0.606-3.406,0.926-4.845,1.817c-1.125,0.695-2.187,1.345-3.464,1.716
				c-1.016,0.294-1.74,1.02-2.02,2.096c-0.158,0.604-0.02,1.109,0.669,1.126c1.086,0.029,2.242,0.169,3.25-0.136
				c2.833-0.857,5.687-0.35,8.686-0.496c-0.242,0.357-0.382,0.596-0.553,0.811c-1.411,1.771-2.818,3.542-4.244,5.303
				c-1.774,2.192-2.941,4.589-2.477,7.506c0.074,0.459,0.344,0.886,0.52,1.325c0.382-0.277,0.871-0.479,1.127-0.844
				c0.831-1.18,1.927-1.983,3.213-2.587c2.542-1.201,5.064-2.449,7.615-3.638c5.571-2.598,11.175-5.122,16.369-8.465
				c3.108-2,6.468-3.343,10.286-3.269c4.556,0.09,9.113,0.044,13.669,0.105c4.762,0.063,9.522,0.209,14.285,0.265
				c3.003,0.037,5.616-0.727,7.114-3.7c0.664-1.317,1.421-2.608,2.3-3.791c2.683-3.606,5.476-7.136,8.167-10.738
				c1.943-2.598,3.99-5.155,5.093-8.262c0.774-2.18,1.453-4.399,2.048-6.636c1.156-4.35,2.013-8.761,2.415-13.253
				c0.049-0.537,0.163-1.105,0.395-1.581c1.678-3.438,3.535-6.793,5.045-10.298c1.034-2.403,1.916-4.959,2.293-7.529
				c0.437-2.964,0.291-6.02,0.29-9.036c0-0.802,0.248-1.165,0.916-1.511C552.088,128.864,553.369,128.08,554.761,127.282z"/>
			<path fill-rule="evenodd" clip-rule="evenodd" d="M554.761,127.282c-1.392,0.798-2.673,1.583-4.005,2.268
				c-0.667,0.346-0.916,0.709-0.916,1.511c0.001,3.016,0.147,6.072-0.29,9.036c-0.377,2.57-1.259,5.126-2.293,7.529
				c-1.51,3.505-3.367,6.861-5.045,10.298c-0.232,0.476-0.345,1.044-0.395,1.581c-0.402,4.492-1.259,8.903-2.415,13.253
				c-0.595,2.237-1.274,4.456-2.048,6.636c-1.103,3.107-3.15,5.664-5.093,8.262c-2.692,3.602-5.485,7.131-8.167,10.738
				c-0.878,1.183-1.636,2.474-2.3,3.791c-1.498,2.973-4.111,3.736-7.114,3.7c-4.762-0.056-9.523-0.202-14.285-0.265
				c-4.556-0.061-9.113-0.016-13.669-0.105c-3.818-0.075-7.177,1.269-10.286,3.269c-5.194,3.343-10.798,5.867-16.369,8.465
				c-2.55,1.189-5.073,2.437-7.615,3.638c-1.286,0.604-2.382,1.408-3.213,2.587c-0.257,0.365-0.745,0.567-1.127,0.844
				c-0.176-0.438-0.446-0.865-0.52-1.325c-0.464-2.917,0.702-5.314,2.477-7.506c1.426-1.76,2.833-3.531,4.244-5.303
				c0.171-0.214,0.312-0.453,0.553-0.811c-2.999,0.146-5.854-0.362-8.686,0.496c-1.009,0.305-2.165,0.165-3.25,0.136
				c-0.689-0.017-0.827-0.521-0.669-1.126c0.279-1.076,1.003-1.802,2.02-2.096c1.277-0.371,2.339-1.021,3.464-1.716
				c1.439-0.891,3.224-1.211,4.845-1.817c1.357-0.507,2.704-1.047,4.032-1.624c1.078-0.466,1.79-1.3,2.322-2.361
				c0.598-1.187,1.254-2.356,2.015-3.439c1.396-1.984,3.026-2.232,5.007-0.843c0.949,0.667,1.851,1.4,2.786,2.087
				c1.21,0.89,2.487,1.219,4,0.74c2.403-0.76,4.845-1.388,7.271-2.08c2.508-0.716,4.5-2.368,6.672-3.692
				c1.461-0.893,2.937-1.764,4.368-2.704c3.333-2.182,7.037-2.304,10.821-2.025c1.016,0.075,2.036,0.222,3.042,0.158
				c0.711-0.044,1.498-0.244,2.092-0.625c1.941-1.234,3.072-3.009,3.266-5.359c0.139-1.677,0.45-3.341,0.555-5.018
				c0.176-2.867,1.338-5.447,2.21-8.11c1.153-3.522,2.409-7.017,3.438-10.574c0.275-0.947,0.055-2.139-0.239-3.129
				c-1.688-5.711-0.397-10.764,3.21-15.338c0.861-1.095,1.776-2.147,2.729-3.162c1.694-1.806,2.59-3.918,2.82-6.384
				c0.431-4.618-0.561-8.924-2.619-13.033c-1.145-2.281-2.155-4.634-3.398-6.856c-0.641-1.141-1.681-2.054-2.507-3.097
				c-1.633-2.069-3.154-4.237-4.892-6.214c-1.294-1.47-2.767-2.819-4.32-4.011c-1.601-1.227-2.967-2.585-3.891-4.379
				c-1.401-2.717-3.32-5.031-5.607-7.037c-2.927-2.569-4.823-5.929-7.032-9.05c-0.754-1.063-1.569-2.091-2.233-3.207
				c-0.529-0.886-0.937-1.862-1.271-2.84c-0.167-0.491-0.151-1.096-0.047-1.614c1.481-7.442,4.313-14.353,8.205-20.85
				c0.711-1.188,1.224-2.494,1.857-3.73c0.249-0.482,0.103-0.819-0.162-1.258c-1.714-2.858-3.433-5.718-5.03-8.641
				c-0.42-0.771-0.45-1.768-0.592-2.671c-0.04-0.253,0.111-0.575,0.263-0.803c0.128-0.197,0.372-0.372,0.595-0.426
				c0.09-0.022,0.294,0.293,0.394,0.484c0.647,1.247,0.98,2.69,2.237,3.555c0.115,0.078,0.224,0.161,0.551,0.398
				c-0.255-1.192-0.576-2.156-0.643-3.135c-0.087-1.255-0.025-2.531,0.098-3.787c0.037-0.38,0.489-0.72,0.75-1.077
				c0.276,0.371,0.7,0.707,0.801,1.12c0.272,1.123,0.357,2.288,0.609,3.416c0.245,1.096,0.606,2.164,0.922,3.267
				c0.664-0.19,0.846-0.582,0.865-1.18c0.066-2.119,0.173-4.24,0.28-6.358c0.02-0.342,0.009-0.77,0.2-1
				c0.28-0.333,0.702-0.629,1.119-0.753c0.53-0.156,0.965,0.235,0.99,0.729c0.057,1.143,0.037,2.299-0.045,3.445
				c-0.09,1.272-0.273,2.535-0.443,3.799c-0.081,0.586,0.114,0.886,0.872,0.905c0.2-1.814,0.423-3.646,0.594-5.482
				c0.07-0.745,0.27-1.358,1.002-1.684c0.742-0.327,1.076-0.06,1.067,0.737c-0.029,2.347-0.024,4.696,0.004,7.043
				c0.002,0.389,0.104,0.839,0.323,1.148c0.31,0.441,0.752,1.075,1.167,1.096c0.764,0.039,1.451-0.492,1.667-1.296
				c0.231-0.864,0.294-1.77,0.488-2.645c0.099-0.448,0.322-0.868,0.566-1.502c0.312,0.411,0.512,0.586,0.607,0.807
				c0.458,1.062,0.911,2.128,1.313,3.212c0.095,0.256,0.057,0.616-0.043,0.882c-1.298,3.434-3.226,6.463-5.846,9.052
				c-0.337,0.334-0.594,0.797-0.758,1.249c-1.347,3.698-2.665,7.41-3.987,11.119c-0.012,0.037,0.03,0.091,0.058,0.174
				c1.193-1.236,2.377-2.458,3.556-3.687c0.815-0.85,1.844-1.25,2.98-1.161c0.539,0.043,1.049,0.459,1.574,0.707
				c0.226,0.106,0.438,0.267,0.675,0.317c1.446,0.31,2.907,0.551,4.34,0.904c0.688,0.17,1.391,0.441,1.978,0.831
				c0.956,0.633,1.924,0.169,2.881,0.204c0.549,0.02,1.102-0.062,1.649-0.045c1.027,0.029,1.234,0.248,1.322,1.296
				c0.049,0.567-0.029,1.178,0.803,1.291c1.393,0.191,1.877,1.094,1.674,2.478c0.936-0.139,1.276,0.415,1.689,1.028
				c0.296,0.439,0.854,0.749,1.355,0.997c1.464,0.733,1.792,1.983,0.884,3.364c-0.472,0.717-0.922,1.473-1.224,2.271
				c-0.188,0.5-0.081,1.112-0.105,1.674c0.074,0.014,0.149,0.03,0.223,0.047c0.45-0.75,0.861-1.523,1.355-2.24
				c1.416-2.061,3.032-3.904,4.973-5.541c2.739-2.311,4.918-5.163,6.653-8.319c1.299-2.364,2.424-4.835,3.877-7.1
				c1.719-2.678,3.721-5.176,5.576-7.773c2.912-4.072,6.747-7.255,10.282-10.729c0.6-0.59,1.152-1.234,1.8-1.767
				c0.674-0.553,0.856-1.25,0.928-2.061c0.23-2.541,0.538-5.076,0.73-7.62c0.056-0.754-0.107-1.545-0.283-2.292
				c-0.151-0.643-0.517-1.233-0.688-1.875c-0.105-0.395-0.105-0.867,0.022-1.244c0.042-0.123,0.646-0.054,1.157-0.081
				c-0.273-0.733-0.512-1.521-0.855-2.262c-0.515-1.119-0.718-1.75,0.449-2.652c0.207-0.16,0.342-0.45,0.443-0.707
				c0.291-0.726,0.662-0.889,1.329-0.451c0.909,0.595,1.812,1.204,2.661,1.882c0.254,0.205,0.423,0.649,0.442,0.997
				c0.116,2.023,0.189,4.048,0.251,6.075c0.035,1.19-0.026,2.384,0.056,3.568c0.033,0.516,0.193,1.126,0.52,1.504
				c0.874,1.001,1.495,0.983,2.514,0.122c0.443-0.375,0.845-0.843,1.353-1.082c0.341-0.163,0.93-0.145,1.242,0.052
				c0.471,0.298,0.437,0.835,0.062,1.291c-0.056,0.066-0.097,0.148-0.161,0.206c-1.472,1.318-2.503,2.938-3.318,4.725
				c-0.168,0.367-0.523,0.727-0.884,0.918c-2.328,1.242-3.837,3.319-5.497,5.253c-2.248,2.613-3.45,5.819-5.084,8.783
				c-2.534,4.595-5.057,9.2-7.769,13.689c-1.567,2.597-3.558,4.935-5.242,7.463c-1.416,2.121-2.631,4.373-4.001,6.525
				c-0.949,1.49-2.041,2.889-3.011,4.369c-1.077,1.638-0.915,2.768,0.421,4.181c1.142,1.209,1.616,2.793,1.866,4.338
				c0.375,2.316,1.661,4.031,3.06,5.746c1.227,1.507,2.448,3.024,3.622,4.571c1.113,1.466,1.307,2.882-0.011,4.515
				c-0.528,0.656-0.528,1.314-0.438,2.112c0.142,1.251,0.029,2.528,0.111,3.788c0.076,1.172-0.002,2.455,0.458,3.478
				c1.096,2.443,1.643,5.002,2.126,7.596c0.363,1.962,0.683,3.932,1.015,5.9c0.499,2.936,2.005,5.417,3.516,7.899
				C554.206,126.398,554.423,126.74,554.761,127.282z"/>
		</g>
	</g>
</g>
<g id="Layer_3">
	
		<sodipodi:namedview  id="namedview4" inkscape:pageshadow="2" fit-margin-bottom="5" inkscape:window-height="1031" inkscape:window-width="1920" inkscape:pageopacity="0" inkscape:window-x="0" inkscape:current-layer="svg2" inkscape:window-maximized="1" inkscape:window-y="25" fit-margin-right="5" gridtolerance="10" showgrid="false" inkscape:cx="381.25267" bordercolor="#666666" inkscape:cy="52.177137" fit-margin-left="5" fit-margin-top="5" inkscape:zoom="1.2925102" pagecolor="#ffffff" objecttolerance="10" guidetolerance="10" borderopacity="1">
		</sodipodi:namedview>
	<g>
		<path d="M1-0.412V600h1599V-0.412H1z M1139.248,551.034c-0.917,0.115-3.666-1.549-6.105-3.691
			c-2.438-2.146-6.195-5.774-8.347-8.066c-2.062-2.197-12.497-15.921-4.216-1.958c0.312,0.524,1.328,2.198,3.63,6.371
			c3.667,6.641,3.712,7.01,0.904,7.316c-1.238,0.135-7.258-5.303-13.373-12.084c-6.114-6.781-12.146-12.22-13.411-12.076
			c-1.276,0.135-2.479,2.339-2.713,4.963c-0.484,5.42-4.339,10.961-7.707,11.327c-2.734,0.302-3.298,0.347-1.557-3.971
			c0.722-1.792,2.085-12.817,3.031-24.5c1.577-19.521,1.445-22.443-1.672-36.028c-1.866-8.135-7.334-25.4-12.153-38.374
			l-8.765-23.585l-15.376-12.416c-13.174-10.636-16.123-12.33-20.597-11.841c-5.912,0.644-34.087-8.799-43.497-14.58l-6.12-3.756
			l-28.338,7.033c-46.366,11.506-109.529,24.571-112.336,23.231c-0.718-0.34-4.769,1.618-9.002,4.355
			c-6.286,4.063-9.063,4.948-15.151,4.822c-4.096-0.086-19.553,0.624-34.346,1.574c-14.789,0.949-27.802,1.279-28.918,0.732
			c-1.113-0.547-10.549-0.126-20.963,0.933c-13.777,1.405-19.477,1.405-20.919,0.009c-1.091-1.053-1.642-2.633-1.227-3.503
			c1.158-2.432-19.982-1.768-24.966,0.778c-8.729,4.467-19.274,4.195-52.75-1.339c-10.746-1.777-12.379-0.832-17.648,10.219
			c-3.072,6.441-8.038,7.917-9.361,2.784c-1.055-4.092-5.506-5.06-17.983-3.92c-13.121,1.195-24.348-0.369-28.57-3.984
			c-5.66-4.847-7.128-11.442-3.752-16.854c4.633-7.417,14.642-10.85,45.613-15.638c25.476-3.94,28.586-4.13,34.703-2.12
			c9.041,2.97,11.726,2.461,22.778-4.32c5.205-3.193,10.882-5.967,12.613-6.155c1.731-0.191,6.882-2.271,11.443-4.631
			c4.563-2.354,14.081-5.534,21.155-7.062l12.861-2.78l8.345-10.886c4.592-5.986,10.115-15.627,12.276-21.422l3.929-10.535
			l-6.769-4.604c-3.724-2.531-11.178-7.205-16.566-10.391c-8.975-5.296-9.777-6.203-9.507-10.772
			c0.271-4.624-1.438-6.453-23.006-24.578c-12.814-10.771-25.548-22.011-28.298-24.978c-3.683-3.978-9.105-6.819-20.629-10.813
			c-8.596-2.982-19.135-7.403-23.419-9.83c-12.302-6.962-47.353-30.243-53.169-35.316c-13.678-11.924-24.838-14.736-32.729-8.244
			c-4.986,4.104-20.476,3.909-22.072-0.277c-0.628-1.646-2.486-2.747-4.304-2.55c-2.513,0.275-3.237-0.586-3.374-4.015
			c-0.148-3.637-1.28-4.762-6.81-6.759c-4.011-1.451-9.901-2.043-14.898-1.506c-7.218,0.779-8.19,0.521-7.68-2.017
			c0.458-2.275-0.292-2.811-3.457-2.467c-2.992,0.326-4.129-0.378-4.384-2.71c-0.22-2.025-1.394-3.033-3.29-2.827
			c-4.251,0.464-7.719-13.764-4.766-19.555c2.894-5.681,9.09-5.921,27.8-1.085c1.453,0.375,2.98,0.77,4.535,1.167
			c-8.391-10.115-12.489-23.69-10.099-37.663c4.345-25.398,28.459-42.465,53.858-38.118c25.398,4.347,42.465,28.461,38.119,53.859
			c-3.076,17.977-16.059,31.766-32.385,36.757c10.105,3.585,29.397,9.247,34.643,10.012c7.469,1.088,12.906,2.99,15.897,5.558
			c0.983,0.847,5.471,2.42,9.969,3.499c4.499,1.078,19.031,6.158,32.293,11.288c21.63,8.365,25.483,10.471,37.391,20.409
			c7.303,6.098,13.966,11.012,14.806,10.92c0.842-0.092,6.527,3.238,12.634,7.405c6.109,4.163,12.925,7.823,15.151,8.138
			c2.224,0.312,9.231,2.123,15.57,4.023c6.342,1.9,14.489,4.312,18.109,5.362c3.618,1.047,13.412,5.405,21.765,9.684
			c9.589,4.91,18.398,8.176,23.906,8.856c5.963,0.738,10.703,2.607,14.981,5.906c3.663,2.827,9.97,5.571,15.216,6.624
			c15.315,3.076,16.201,3.488,22.188,10.279c3.208,3.64,9.271,8.326,13.469,10.412c6.644,3.303,9.724,3.712,23.711,3.154
			l16.075-0.647l22.806-11.657c21.3-10.892,26.816-14.889,19.432-14.085c-4.206,0.458-11.092-1.965-12.311-4.332
			c-1.341-2.609,1.081-12.311,3.713-14.868c1.632-1.589,1.637-2.504,0.021-4.069c-1.146-1.11,0.745-6.63,1.036-8.593
			c0.29-1.961-3.087-1.557-4.343-2.773c-1.939-1.874-1.254-3.511,4.512-10.799c3.737-4.728,6.286-9.003,5.662-9.504
			c-1.595-1.278,1.599-8.867,5.773-13.715c3.033-3.52,3.222-4.645,1.4-8.235c-2.45-4.833-1.791-12.954,1.054-12.899
			c4.902,0.088,9.245-1.062,11.222-3.522c1.529-1.9,0.353-3.472,2.476-2.63c0.829,0.329,0.543,1.583,3.427,2.507
			c2.809,0.901,8.35,0.151,10.75,0.369c4.867,0.438,12.756,2.117,17.532,3.73c5.688,1.921,6.842,0.138,6.742-1.11
			c1.02-1.026,0.815,0.819,2.977,2.859c2.163,2.043,8.961,5.872,11.938,7.174c6.826,2.987,11.806,10.782,11.226,17.575
			c-0.234,2.778-0.422,10.594-0.412,17.363c0.018,13.441-0.974,15.953-13.657,34.603l-7.285,10.713l2.049,8.742
			c2.223,9.494,9.521,21.845,20.633,34.913c3.88,4.563,7.118,8.87,7.199,9.565c0.076,0.699,3.853,5.77,8.394,11.269
			c4.542,5.503,8.39,11.231,8.555,12.729c0.161,1.5,6.415,10.608,13.895,20.242c13.162,16.954,27.228,36.358,36.682,50.611
			c7.502,11.309,10.48,22.016,15.867,56.981c5.684,36.898,4.761,34.521,21.679,55.857c7.11,8.967,10.136,19.352,8.853,19.521
			c-0.836,0.113-0.734-0.443-0.714,0.312c0.018,0.584,0.854,3.231,0.874,3.771C1140.895,547.471,1141.582,550.745,1139.248,551.034z
			"/>
	</g>
</g>
</svg>
